<svg width="482" height="128" viewBox="0 0 482 128" fill="none" xmlns="http://www.w3.org/2000/svg">
<path d="M51.7 91.65C52.01 91.45 52.38 91.36 52.69 91.11C52.77 91.04 52.84 90.97 52.92 90.9C52.92 90.89 52.92 90.88 52.91 90.87C52.54 89.75 53.77 89.09 54.61 88.59C54.94 88.41 55.3 88.34 55.63 88.11C56.03 87.83 56.37 87.48 56.79 87.22C57.39 86.86 58.07 86.81 58.66 86.46C59.34 86.04 59.78 85.34 60.49 85.03C61.7 84.49 62.95 84.08 64.14 83.54C64.27 83.43 64.4 83.37 64.52 83.37C64.64 83.31 64.77 83.27 64.88 83.21C65.71 82.78 66.38 82.28 67.02 81.58C67.21 81.36 67.72 80.8 68 81C68.58 81.44 68.38 83.57 68.37 84.21C68.37 84.9 68.38 85.59 68.39 86.27C68.56 94.46 69.56 102.03 70.18 109.19C70.25 110.03 70.33 110.87 70.4 111.7C70.43 112.13 70.35 112.25 70.26 112.62C70.19 112.93 70.33 113.26 70.12 113.54C69.79 114 69.23 114.51 68.78 114.88C68.72 114.93 68.65 114.98 68.58 115.03C68.59 115.28 68.65 115.52 68.5 115.75C68.19 116.23 67.65 116.76 67.23 117.16C66.07 118.25 64.79 119.16 63.45 120.01C62.59 120.56 61.65 121.15 60.89 121.83C60.05 122.59 58.84 123.79 58.46 122.21C58.11 120.8 57.72 119.39 57.35 117.95C56.53 114.84 55.72 111.63 54.64 108.41C53.19 104.08 51.66 99.72 50.53 95.3C50.43 94.89 50.27 94.43 50.11 94.04C49.68 92.92 50.88 92.19 51.7 91.65Z" fill="#ED6C30"/>
<path d="M60.77 124.21C63.67 121.94 64.72 120.91 66.91 118.76C68.94 116.78 73.71 112.19 75.92 109.21C77.17 107.51 77.85 106.43 76.74 104.84C76.31 104.23 75.44 104.15 74.75 104.29C73.7 104.51 72.88 105.07 72.02 105.72C69.41 107.7 64.27 112.07 61.85 114.26C60.77 115.24 59.4 116.69 58.37 117.74C55.56 120.61 53.62 123.6 55.45 125.35C57.11 126.91 59.44 125.25 60.77 124.21Z" fill="#ED6C30"/>
<path d="M34.85 75.36C35.05 75.05 35.14 74.68 35.39 74.36C35.46 74.28 35.53 74.21 35.6 74.13C35.61 74.14 35.63 74.14 35.64 74.14C36.76 74.52 37.42 73.28 37.92 72.43C38.1 72.11 38.17 71.74 38.41 71.41C38.69 71.01 39.04 70.67 39.29 70.25C39.65 69.65 39.71 68.97 40.06 68.38C40.47 67.7 41.17 67.27 41.49 66.55C42.03 65.34 42.44 64.1 42.98 62.9C43.09 62.77 43.15 62.63 43.15 62.51C43.21 62.39 43.25 62.26 43.31 62.15C43.74 61.33 44.24 60.65 44.94 60.01C45.15 59.83 45.71 59.32 45.51 59.05C45.08 58.47 42.94 58.67 42.3 58.68C41.61 58.68 40.92 58.66 40.25 58.65C32.07 58.48 24.5 57.48 17.33 56.87C16.49 56.8 15.65 56.71 14.82 56.65C14.4 56.61 14.27 56.7 13.91 56.78C13.6 56.85 13.27 56.71 12.99 56.92C12.52 57.26 12.02 57.82 11.65 58.26C11.6 58.32 11.55 58.39 11.5 58.47C11.26 58.45 11.01 58.39 10.78 58.55C10.3 58.87 9.77 59.4 9.38 59.82C8.29 60.99 7.38 62.27 6.52 63.6C5.97 64.46 5.38 65.4 4.7 66.16C3.92 67 2.72 68.2 4.3 68.59C5.7 68.94 7.11 69.33 8.56 69.7C11.67 70.52 14.87 71.33 18.11 72.41C22.44 73.85 26.79 75.39 31.22 76.51C31.63 76.62 32.08 76.77 32.49 76.93C33.57 77.37 34.3 76.17 34.85 75.36Z" fill="#ED6C30"/>
<path d="M2.29 66.28C4.55 63.38 5.59 62.33 7.73 60.14C9.72 58.11 14.3 53.35 17.29 51.14C18.99 49.88 20.07 49.21 21.66 50.32C22.27 50.74 22.36 51.62 22.21 52.31C21.99 53.35 21.43 54.17 20.78 55.03C18.79 57.64 14.43 62.78 12.24 65.2C11.26 66.28 9.8 67.66 8.76 68.68C5.89 71.49 2.9 73.43 1.16 71.6C-0.409999 69.94 1.25 67.62 2.29 66.28Z" fill="#ED6C30"/>
<path d="M104.75 24.92C103.78 23.93 104.01 22.15 105.28 20.95C108.86 17.75 112.49 14.49 116.16 11.22C116.73 10.7 117.17 10.12 117.77 9.66C118.94 8.77 120.09 7.8 121.2 6.81C122.18 5.93 123.16 4.74 124.39 4.23C125.34 3.84 126.81 3.97 127.28 4.74C128.21 6.22 125.68 8.61 124.45 9.68C122.13 11.68 119.98 13.87 117.79 16C114.79 18.92 111.83 21.81 108.82 24.61C107.55 25.79 105.73 25.93 104.75 24.92Z" fill="#ED6C30"/>
<path d="M64.86 34.39C67.63 31.89 70.51 29.52 73.49 27.3C75.75 25.63 77.82 24.23 79.47 23.2C82.18 21.5 84.98 19.93 87.85 18.5C91.54 16.66 95.15 15.2 98.62 14.08C102.41 12.85 106.38 11.86 109.78 11.47C112.2 11.19 114.65 11.19 116.38 12.16C118.31 13.23 119.16 15.96 119.03 18.51C118.77 23.42 117.31 29.02 114.9 34.78C113.81 37.43 112.46 40.16 110.84 42.9C98.61 63.52 78.89 79.32 57.61 90.76C55.42 91.92 53.05 92.87 50.77 94.23C50.68 94.29 50.58 94.31 50.48 94.37C49.99 94.61 49.69 94.73 49.62 94.71C45.94 96.03 40.64 94.43 36.53 90.21C32.38 86.01 30.93 80.75 32.37 77.07C32.37 77.07 32.51 76.8 32.77 76.31C41.05 60.88 51.74 46.2 64.86 34.39Z" fill="#78A3AD"/>
<mask id="mask0_1_29" style="mask-type:luminance" maskUnits="userSpaceOnUse" x="31" y="11" width="89" height="85">
<path d="M64.86 34.39C67.63 31.89 70.51 29.52 73.49 27.3C75.75 25.63 77.82 24.23 79.47 23.2C82.18 21.5 84.98 19.93 87.85 18.5C91.54 16.66 95.15 15.2 98.62 14.08C102.41 12.85 106.38 11.86 109.78 11.47C112.2 11.19 114.65 11.19 116.38 12.16C118.31 13.23 119.16 15.96 119.03 18.51C118.77 23.42 117.31 29.02 114.9 34.78C113.81 37.43 112.46 40.16 110.84 42.9C98.61 63.52 78.89 79.32 57.61 90.76C55.42 91.92 53.05 92.87 50.77 94.23C50.68 94.29 50.58 94.31 50.48 94.37C49.99 94.61 49.69 94.73 49.62 94.71C45.94 96.03 40.64 94.43 36.53 90.21C32.38 86.01 30.93 80.75 32.37 77.07C32.37 77.07 32.51 76.8 32.77 76.31C41.05 60.88 51.74 46.2 64.86 34.39Z" fill="white"/>
</mask>
<g mask="url(#mask0_1_29)">
<path d="M119.63 30.19C119.75 29.61 119.81 28.99 119.96 28.53C120.79 25.86 121.24 23.24 121.29 20.48C121.33 18.1 120.93 15.58 120.18 13.35C119.61 11.63 118.42 9.10999 116.67 8.47999C114.59 7.72999 112.46 7.94999 110.29 8.10999C108.29 8.25999 106.24 8.30999 104.35 8.81999C102.42 9.32999 100.51 10.47 99.04 11.8C98.51 12.28 97.46 13.18 97.35 13.93C97.21 14.86 98.29 16.36 98.71 17.17C99.81 19.29 101.69 20.86 103.18 22.7C105.2 25.24 107.55 26.94 110.29 28.72C111.84 29.72 113.36 30.81 115.04 31.56C115.95 31.97 118.1 32.35 118.94 31.64C119.33 31.29 119.51 30.76 119.63 30.19Z" fill="#ED6C30"/>
</g>
<path d="M86.55 34.98C84.47 36.92 84.37 40.17 86.31 42.24C88.26 44.31 91.5 44.42 93.57 42.47C95.65 40.53 95.75 37.28 93.8 35.2C91.88 33.13 88.63 33.03 86.55 34.98Z" fill="#FFFEFB"/>
<path d="M79.9593 55.2649C82.0296 53.3226 82.1333 50.0698 80.1911 47.9995C78.2488 45.9292 74.996 45.8254 72.9257 47.7677C70.8554 49.71 70.7516 52.9628 72.6939 55.0331C74.6361 57.1034 77.889 57.2072 79.9593 55.2649Z" fill="#FFFEFB"/>
<path d="M59.29 60.55C57.23 62.49 57.11 65.74 59.06 67.81C61 69.88 64.26 69.99 66.33 68.05C68.4 66.1 68.5 62.85 66.56 60.78C64.61 58.71 61.36 58.61 59.29 60.55Z" fill="#FFFEFB"/>
<path d="M32 97.86C34.89 95.59 35.94 94.55 38.14 92.41C40.17 90.43 44.93 85.84 47.14 82.85C48.4 81.15 49.06 80.07 47.96 78.48C47.53 77.87 46.66 77.79 45.97 77.93C44.93 78.14 44.11 78.71 43.24 79.36C40.63 81.34 35.49 85.7 33.07 87.9C31.99 88.88 30.61 90.33 29.59 91.38C26.79 94.25 24.84 97.24 26.67 98.98C28.33 100.56 30.67 98.9 32 97.86Z" fill="#ED6C30"/>
<path d="M155.76 92C155.227 92 154.773 91.84 154.4 91.52C154.08 91.1467 153.92 90.6933 153.92 90.16V71.28L134.64 38.64C134.587 38.48 134.533 38.32 134.48 38.16C134.427 38 134.4 37.8133 134.4 37.6C134.4 37.1733 134.56 36.8 134.88 36.48C135.2 36.16 135.573 36 136 36H140.16C140.64 36 141.067 36.1333 141.44 36.4C141.813 36.6133 142.08 36.9333 142.24 37.36L157.84 63.28L173.44 37.36C173.707 36.9333 174 36.6133 174.32 36.4C174.693 36.1333 175.12 36 175.6 36H179.68C180.16 36 180.56 36.16 180.88 36.48C181.2 36.8 181.36 37.1733 181.36 37.6C181.36 37.8133 181.333 38 181.28 38.16C181.227 38.32 181.147 38.48 181.04 38.64L161.84 71.28V90.16C161.84 90.6933 161.653 91.1467 161.28 91.52C160.96 91.84 160.507 92 159.92 92H155.76ZM200.038 92.8C195.985 92.8 192.598 92.0267 189.878 90.48C187.158 88.9333 185.078 86.8 183.638 84.08C182.198 81.3067 181.398 78.16 181.238 74.64C181.185 73.7333 181.158 72.5867 181.158 71.2C181.158 69.76 181.185 68.6133 181.238 67.76C181.398 64.1867 182.198 61.04 183.638 58.32C185.131 55.6 187.238 53.4667 189.958 51.92C192.678 50.3733 196.038 49.6 200.038 49.6C204.038 49.6 207.398 50.3733 210.118 51.92C212.838 53.4667 214.918 55.6 216.358 58.32C217.851 61.04 218.678 64.1867 218.838 67.76C218.891 68.6133 218.918 69.76 218.918 71.2C218.918 72.5867 218.891 73.7333 218.838 74.64C218.678 78.16 217.878 81.3067 216.438 84.08C214.998 86.8 212.918 88.9333 210.198 90.48C207.478 92.0267 204.091 92.8 200.038 92.8ZM200.038 86.64C203.345 86.64 205.985 85.6 207.958 83.52C209.931 81.3867 210.998 78.2933 211.158 74.24C211.211 73.44 211.238 72.4267 211.238 71.2C211.238 69.9733 211.211 68.96 211.158 68.16C210.998 64.1067 209.931 61.04 207.958 58.96C205.985 56.8267 203.345 55.76 200.038 55.76C196.731 55.76 194.065 56.8267 192.038 58.96C190.065 61.04 189.025 64.1067 188.918 68.16C188.865 68.96 188.838 69.9733 188.838 71.2C188.838 72.4267 188.865 73.44 188.918 74.24C189.025 78.2933 190.065 81.3867 192.038 83.52C194.065 85.6 196.731 86.64 200.038 86.64ZM244.456 92.8C241.042 92.8 238.136 92.0533 235.736 90.56C233.389 89.0133 231.602 86.88 230.376 84.16C229.149 81.44 228.536 78.32 228.536 74.8V52.24C228.536 51.7067 228.696 51.28 229.016 50.96C229.389 50.5867 229.842 50.4 230.376 50.4H234.376C234.909 50.4 235.336 50.5867 235.656 50.96C236.029 51.28 236.216 51.7067 236.216 52.24V74.4C236.216 82.3467 239.682 86.32 246.616 86.32C249.922 86.32 252.562 85.28 254.536 83.2C256.562 81.0667 257.576 78.1333 257.576 74.4V52.24C257.576 51.7067 257.736 51.28 258.056 50.96C258.429 50.5867 258.882 50.4 259.416 50.4H263.336C263.922 50.4 264.376 50.5867 264.696 50.96C265.016 51.28 265.176 51.7067 265.176 52.24V90.16C265.176 90.6933 265.016 91.1467 264.696 91.52C264.376 91.84 263.922 92 263.336 92H259.656C259.122 92 258.669 91.84 258.296 91.52C257.976 91.1467 257.816 90.6933 257.816 90.16V86.64C256.376 88.5067 254.616 90 252.536 91.12C250.509 92.24 247.816 92.8 244.456 92.8ZM278.901 92C278.367 92 277.914 91.84 277.541 91.52C277.221 91.1467 277.061 90.6933 277.061 90.16V52.32C277.061 51.7867 277.221 51.3333 277.541 50.96C277.914 50.5867 278.367 50.4 278.901 50.4H282.581C283.114 50.4 283.567 50.5867 283.941 50.96C284.314 51.3333 284.501 51.7867 284.501 52.32V55.84C285.567 54.0267 287.034 52.6667 288.901 51.76C290.767 50.8533 293.007 50.4 295.621 50.4H298.821C299.354 50.4 299.781 50.5867 300.101 50.96C300.421 51.28 300.581 51.7067 300.581 52.24V55.52C300.581 56.0533 300.421 56.48 300.101 56.8C299.781 57.12 299.354 57.28 298.821 57.28H294.021C291.141 57.28 288.874 58.1333 287.221 59.84C285.567 61.4933 284.741 63.76 284.741 66.64V90.16C284.741 90.6933 284.554 91.1467 284.181 91.52C283.807 91.84 283.354 92 282.821 92H278.901ZM303.931 92C303.505 92 303.105 91.84 302.731 91.52C302.411 91.1467 302.251 90.7467 302.251 90.32C302.251 90.0533 302.278 89.8133 302.331 89.6L321.131 38.24C321.291 37.6533 321.611 37.1467 322.091 36.72C322.625 36.24 323.345 36 324.251 36H336.091C336.998 36 337.691 36.24 338.171 36.72C338.705 37.1467 339.051 37.6533 339.211 38.24L357.931 89.6C358.038 89.8133 358.091 90.0533 358.091 90.32C358.091 90.7467 357.905 91.1467 357.531 91.52C357.211 91.84 356.811 92 356.331 92H346.491C345.691 92 345.078 91.8133 344.651 91.44C344.278 91.0133 344.038 90.64 343.931 90.32L340.811 82.16H319.451L316.411 90.32C316.305 90.64 316.065 91.0133 315.691 91.44C315.318 91.8133 314.678 92 313.771 92H303.931ZM322.731 70.64H337.611L330.091 49.52L322.731 70.64ZM365.517 107.2C364.93 107.2 364.45 107.013 364.077 106.64C363.704 106.267 363.517 105.787 363.517 105.2V52.4C363.517 51.8133 363.704 51.3333 364.077 50.96C364.45 50.5867 364.93 50.4 365.517 50.4H374.557C375.09 50.4 375.544 50.5867 375.917 50.96C376.344 51.3333 376.557 51.8133 376.557 52.4V55.36C377.784 53.7067 379.41 52.3467 381.437 51.28C383.464 50.16 385.97 49.6 388.957 49.6C391.624 49.6 393.97 50.0267 395.997 50.88C398.024 51.68 399.757 52.88 401.197 54.48C402.637 56.08 403.757 58.0267 404.557 60.32C405.41 62.6133 405.89 65.2533 405.997 68.24C406.05 69.3067 406.077 70.2933 406.077 71.2C406.077 72.1067 406.05 73.0933 405.997 74.16C405.89 77.04 405.437 79.6267 404.637 81.92C403.837 84.2133 402.717 86.16 401.277 87.76C399.837 89.36 398.077 90.6133 395.997 91.52C393.97 92.3733 391.624 92.8 388.957 92.8C386.344 92.8 384.05 92.3467 382.077 91.44C380.157 90.48 378.557 89.1467 377.277 87.44V105.2C377.277 105.787 377.09 106.267 376.717 106.64C376.344 107.013 375.864 107.2 375.277 107.2H365.517ZM384.637 82.08C386.45 82.08 387.864 81.7067 388.877 80.96C389.89 80.2133 390.61 79.2 391.037 77.92C391.517 76.64 391.81 75.2267 391.917 73.68C392.024 72.0267 392.024 70.3733 391.917 68.72C391.81 67.1733 391.517 65.76 391.037 64.48C390.61 63.2 389.89 62.1867 388.877 61.44C387.864 60.6933 386.45 60.32 384.637 60.32C382.877 60.32 381.464 60.72 380.397 61.52C379.33 62.2667 378.557 63.2533 378.077 64.48C377.597 65.7067 377.33 67.04 377.277 68.48C377.224 69.4933 377.197 70.48 377.197 71.44C377.197 72.4 377.224 73.4133 377.277 74.48C377.33 75.8133 377.624 77.0667 378.157 78.24C378.69 79.36 379.49 80.2933 380.557 81.04C381.624 81.7333 382.984 82.08 384.637 82.08ZM415.986 107.2C415.399 107.2 414.919 107.013 414.546 106.64C414.172 106.267 413.986 105.787 413.986 105.2V52.4C413.986 51.8133 414.172 51.3333 414.546 50.96C414.919 50.5867 415.399 50.4 415.986 50.4H425.026C425.559 50.4 426.012 50.5867 426.386 50.96C426.812 51.3333 427.026 51.8133 427.026 52.4V55.36C428.252 53.7067 429.879 52.3467 431.906 51.28C433.932 50.16 436.439 49.6 439.426 49.6C442.092 49.6 444.439 50.0267 446.466 50.88C448.492 51.68 450.226 52.88 451.666 54.48C453.106 56.08 454.226 58.0267 455.026 60.32C455.879 62.6133 456.359 65.2533 456.466 68.24C456.519 69.3067 456.546 70.2933 456.546 71.2C456.546 72.1067 456.519 73.0933 456.466 74.16C456.359 77.04 455.906 79.6267 455.106 81.92C454.306 84.2133 453.186 86.16 451.746 87.76C450.306 89.36 448.546 90.6133 446.466 91.52C444.439 92.3733 442.092 92.8 439.426 92.8C436.812 92.8 434.519 92.3467 432.546 91.44C430.626 90.48 429.026 89.1467 427.746 87.44V105.2C427.746 105.787 427.559 106.267 427.186 106.64C426.812 107.013 426.332 107.2 425.746 107.2H415.986ZM435.106 82.08C436.919 82.08 438.332 81.7067 439.346 80.96C440.359 80.2133 441.079 79.2 441.506 77.92C441.986 76.64 442.279 75.2267 442.386 73.68C442.492 72.0267 442.492 70.3733 442.386 68.72C442.279 67.1733 441.986 65.76 441.506 64.48C441.079 63.2 440.359 62.1867 439.346 61.44C438.332 60.6933 436.919 60.32 435.106 60.32C433.346 60.32 431.932 60.72 430.866 61.52C429.799 62.2667 429.026 63.2533 428.546 64.48C428.066 65.7067 427.799 67.04 427.746 68.48C427.692 69.4933 427.666 70.48 427.666 71.44C427.666 72.4 427.692 73.4133 427.746 74.48C427.799 75.8133 428.092 77.0667 428.626 78.24C429.159 79.36 429.959 80.2933 431.026 81.04C432.092 81.7333 433.452 82.08 435.106 82.08Z" fill="#ED6C30"/>
</svg>
