<svg width="359" height="302" viewBox="0 0 359 302" fill="none" xmlns="http://www.w3.org/2000/svg">
<path fill-rule="evenodd" clip-rule="evenodd" d="M22.2324 2.04389C21.3874 2.86996 21.1937 3.83909 21.4738 5.83735C21.9874 9.4983 30.935 27.6006 34.0397 31.2616C35.424 32.8933 37.0985 35.8264 37.7606 37.7792C38.4227 39.7319 39.9899 42.4383 41.2426 43.7924C43.1452 45.85 43.5198 46.7624 43.5198 49.3395C43.5198 53.1106 44.7171 55.5235 48.9989 60.3824C50.8111 62.4386 52.2939 64.6841 52.2939 65.3724C52.2939 68.6431 54.5705 73.6826 57.7177 77.3765C59.5602 79.5389 61.068 81.4554 61.068 81.6347C61.068 81.814 57.9552 84.407 54.15 87.3961C38.4666 99.718 31.014 107.408 22.8412 119.7C11.6448 136.54 4.78274 154.355 2.06411 173.638C0.821561 182.454 0.613007 205.324 1.72664 210.699C4.4392 223.791 5.16475 226.415 8.62648 235.637C16.0312 255.365 31.6174 276.805 46.8337 288.193C47.7003 288.841 46.6285 289 41.2743 289.017C34.7976 289.037 34.5938 289.085 32.5899 291.042C30.8722 292.72 30.6077 293.387 30.9667 295.139C31.2023 296.289 32.2059 298.057 33.1967 299.068L34.9981 300.905H169.708C318.042 300.905 306.157 301.244 308.435 296.942C309.895 294.183 309.698 293.096 307.347 290.95C305.418 289.191 304.839 289.036 300.091 289.017C295.588 288.998 295.087 288.881 296.146 288.097C307.781 279.478 318.052 264.341 321.231 251.129C321.942 248.173 322.228 247.815 324.001 247.652C334.948 246.652 348.317 240.924 355.179 234.294C360.614 229.043 358.136 223.876 348.256 219.858C342.848 217.659 333.932 215.199 331.37 215.199C329.605 215.199 323.513 217.452 318.341 220.017L315.429 221.462L314.123 219.906C312.359 217.802 312.482 216.127 314.546 214.11C316.267 212.429 316.315 212.423 324.17 212.884C331.731 213.328 332.121 213.287 333.396 211.911C334.281 210.956 334.704 209.609 334.658 207.898C334.522 202.831 326.675 195.95 318.142 193.415C312.104 191.621 302.688 191.652 297.686 193.48C292.915 195.224 288.289 200.065 286.84 204.835C285.574 208.997 285.534 216.541 286.758 220.473C287.594 223.16 290.536 228.957 291.97 230.741C292.913 231.916 286.351 238.473 281.929 240.775C270.653 246.646 263.166 244.153 257.387 232.603L255.111 228.055L255.12 218.166C255.125 211.955 255.502 206.56 256.132 203.662C257.698 196.462 257.536 167.628 255.879 158.501C251.587 134.867 238.117 111.688 218.051 93.4094C205.109 81.6202 191.848 73.5698 174.457 66.9435C157.981 60.6665 140.515 58.2523 121.137 59.5741C114.639 60.0171 107.752 60.8973 104.601 61.6864C101.631 62.4301 97.9538 63.1836 96.4284 63.3616C93.7867 63.6689 93.4911 63.5139 90.1765 60.091C88.2631 58.1145 84.9721 55.5928 82.8629 54.4878C79.6739 52.8159 78.6709 51.8303 76.8992 48.6275C75.2463 45.639 73.7271 44.0548 70.1121 41.5515C67.5508 39.7781 64.3921 37.2452 63.0928 35.9227C44.3385 16.8347 31.099 4.1951 27.8047 2.2331C25.1421 0.646888 23.7126 0.598761 22.2324 2.04389ZM79.8541 63.7407C91.9016 76.3474 94.7019 79.7202 93.8279 80.57C92.968 81.4053 56.1518 42.8173 44.2669 28.6245C39.7274 23.2033 64.0607 47.214 79.8541 63.7407ZM258.823 39.5025C258.823 40.1071 259.15 40.4947 259.549 40.3648C259.948 40.235 260.274 39.8473 260.274 39.5025C260.274 39.1577 259.948 38.7701 259.549 38.6402C259.15 38.5103 258.823 38.898 258.823 39.5025ZM322.317 81.2853C320.411 81.8055 319.608 83.3442 321.242 83.3442C322.724 83.3442 324.966 82.1391 324.966 81.3433C324.966 80.6399 324.703 80.634 322.317 81.2853ZM102.844 147.552C105.188 149.988 106 154.5 102 155.5C100.47 157.69 98.275 156.831 96.4999 156C93.5781 154.632 93.1293 151.158 94.4353 148.691C95.5976 146.497 96.3123 146.101 99.253 146.027C100.618 145.993 101.847 146.515 102.844 147.552Z" fill="url(#paint0_linear_13_26)"/>
<path fill-rule="evenodd" clip-rule="evenodd" d="M22.2324 2.04389C21.3874 2.86996 21.1937 3.83909 21.4738 5.83735C21.9874 9.4983 30.935 27.6006 34.0397 31.2616C35.424 32.8933 37.0985 35.8264 37.7606 37.7792C38.4227 39.7319 39.9899 42.4383 41.2426 43.7924C43.1452 45.85 43.5198 46.7624 43.5198 49.3395C43.5198 53.1106 44.7171 55.5235 48.9989 60.3824C50.8111 62.4387 52.2939 64.6841 52.2939 65.3724C52.2939 68.6431 54.5705 73.6826 57.7177 77.3765C59.5602 79.5389 61.068 81.4554 61.068 81.6347C61.068 81.8141 57.9552 84.407 54.15 87.3961C38.4666 99.718 31.014 107.408 22.8412 119.7C11.6448 136.54 4.78274 154.355 2.06411 173.638C0.821561 182.454 0.613007 205.324 1.72664 210.699C4.4392 223.791 5.16475 226.415 8.62648 235.637C16.0312 255.365 31.6174 276.805 46.8337 288.193C47.7003 288.841 46.6285 289 41.2743 289.017C34.7976 289.037 34.5938 289.085 32.5899 291.042C30.8722 292.72 30.6077 293.387 30.9667 295.139C31.2023 296.289 32.2059 298.057 33.1967 299.068L34.9981 300.905H169.708C318.042 300.905 306.157 301.244 308.435 296.942C309.895 294.183 309.698 293.096 307.347 290.95C305.418 289.191 304.839 289.036 300.091 289.017C295.588 288.998 295.087 288.881 296.146 288.097C307.781 279.478 318.052 264.341 321.231 251.129C321.942 248.173 322.228 247.815 324.001 247.652C334.948 246.652 348.317 240.924 355.179 234.294C360.614 229.043 358.136 223.876 348.256 219.858C342.848 217.659 333.932 215.199 331.37 215.199C329.605 215.199 323.513 217.452 318.341 220.017L315.429 221.462L314.123 219.906C312.359 217.803 312.482 216.127 314.546 214.11C316.267 212.429 316.315 212.424 324.17 212.884C331.731 213.328 332.121 213.287 333.396 211.911C334.281 210.956 334.704 209.609 334.658 207.898C334.522 202.831 326.675 195.95 318.142 193.415C312.104 191.621 302.688 191.652 297.686 193.48C292.915 195.224 288.289 200.065 286.84 204.835C285.574 208.997 285.534 216.541 286.758 220.473C287.594 223.16 290.536 228.957 291.97 230.741C292.913 231.916 286.351 238.473 281.929 240.775C270.653 246.646 263.166 244.153 257.387 232.603L255.111 228.055L255.12 218.166C255.125 211.955 255.502 206.56 256.132 203.662C257.698 196.462 257.536 167.628 255.879 158.501C251.587 134.867 238.117 111.688 218.05 93.4094C205.109 81.6202 191.848 73.5698 174.457 66.9435C157.981 60.6665 140.515 58.2523 121.137 59.5741C114.639 60.0171 107.752 60.8973 104.601 61.6864C101.631 62.4301 97.9537 63.1836 96.4284 63.3616C93.7867 63.6689 93.4911 63.5139 90.1765 60.091C88.2631 58.1145 84.9721 55.5928 82.8629 54.4878C79.6739 52.8159 78.6709 51.8303 76.8992 48.6275C75.2463 45.639 73.727 44.0548 70.1121 41.5515C67.5507 39.7781 64.3921 37.2452 63.0928 35.9227C44.3385 16.8347 31.099 4.1951 27.8047 2.2331C25.1421 0.646888 23.7126 0.598761 22.2324 2.04389ZM79.8541 63.7407C91.9016 76.3474 94.7019 79.7202 93.8279 80.57C92.968 81.4053 56.1518 42.8173 44.2669 28.6245C39.7273 23.2033 64.0607 47.214 79.8541 63.7407ZM258.823 39.5025C258.823 40.1071 259.15 40.4947 259.549 40.3648C259.948 40.235 260.274 39.8473 260.274 39.5025C260.274 39.1577 259.948 38.7701 259.549 38.6402C259.15 38.5103 258.823 38.898 258.823 39.5025ZM149.5 72.8479C169.76 76.0955 187.66 84.1321 204.921 97.7303C224.888 113.461 239.487 137.243 243.641 160.809C245.115 169.164 245.137 184.468 243.699 199.706C242.339 214.116 242.322 224.972 243.652 230.059C246.176 239.717 252.674 248.111 260.51 251.834C264.295 253.631 265.09 253.758 272.659 253.762C280.634 253.767 280.841 253.728 286.071 251.289C290.057 249.43 292.601 247.619 296.26 244.037C300.979 239.418 305.374 233.12 305.387 230.959C305.391 230.381 304.119 228.007 302.562 225.685C297.81 218.597 296.444 213.272 297.986 207.848C299.929 201.018 309.41 198.097 316.867 202.031C318.848 203.076 318.988 203.281 317.735 203.304C316.913 203.32 314.786 203.807 313.01 204.389C302.577 207.803 298.99 218.281 305.582 226.092C308.018 228.978 313.482 231.665 316.935 231.674C318.287 231.678 322.954 230.267 327.463 228.491L335.562 225.301L339.544 226.681C342 227.531 343.527 228.439 343.527 229.046C343.527 229.605 341.585 230.971 339.043 232.198C334.55 234.369 332.694 234.704 318.027 236C312.43 236.496 311.965 237.043 309.761 245.733C306.684 257.867 302.661 264.798 293.588 273.601C288.141 278.886 282.987 282.489 275.882 285.981L271.006 288.378H232.262H193.518L189.137 283.842C177.129 271.408 174.062 262.425 176.053 245.526C176.575 241.102 176.497 240.414 175.319 238.994C172.378 235.449 166.846 238.127 164.962 244.007C163.799 247.639 163.376 261.133 164.291 265.436C164.714 267.428 166.247 271.365 167.698 274.186L170.336 279.315L163.116 279.005C157.643 278.77 154.674 278.274 150.85 276.957C140.769 273.489 131.288 265.413 126.948 256.599C124.767 252.17 124.412 250.749 124.07 245.075C123.57 236.794 124.495 232.073 127.89 225.583C129.373 222.75 130.586 219.563 130.586 218.5C130.586 215.029 126.127 212.53 122.674 214.067C120.613 214.985 115.544 222.989 113.817 228.055C108.228 244.449 112.069 261.074 124.433 274.001C129.466 279.264 133.733 282.45 140.333 285.873L145.097 288.344L107.482 288.361L69.8658 288.378L65.3154 285.658C54.1365 278.975 43.2248 269.171 35.3018 258.693C12.29 228.259 6.55916 186.755 20.375 150.59C28.2454 129.989 41.1649 112.381 57.8911 99.4622L63.2508 95.3219L67.0432 98.3394C72.3596 102.569 75.9415 103.976 81.3929 103.976C90.0422 103.976 99.4838 97.8522 103.684 89.5183C105.628 85.6603 105.763 84.9641 105.414 80.5489C105.206 77.9164 104.837 75.133 104.594 74.3636C104.17 73.0233 104.47 72.9336 111.801 72.2111C126.873 70.7251 137.364 70.9024 149.5 72.8479ZM322.317 81.2853C320.411 81.8055 319.608 83.3442 321.242 83.3442C322.724 83.3442 324.966 82.1391 324.966 81.3433C324.966 80.6399 324.703 80.634 322.317 81.2853ZM95.9944 136.324C88.3414 139.123 82.4667 147.43 82.408 155.535C82.2973 170.802 97.455 180.643 111.962 174.722C115.614 173.232 120.792 168.118 122.571 164.246C124.892 159.19 124.782 151.546 122.319 146.893C120.164 142.823 114.832 137.978 111.262 136.847C107.117 135.534 98.9209 135.253 95.9944 136.324ZM102.707 147.459C104.29 149.161 105.13 151.974 104.519 153.529C103.985 154.888 100.771 156.524 98.6347 156.524C94.8153 156.524 92.5948 152.182 94.5352 148.507C95.5955 146.499 96.3542 146.1 99.253 146.027C100.596 145.994 101.815 146.499 102.707 147.459ZM114.596 175.068C106.193 182.316 101.221 182.642 92.6852 176.504C87.846 173.025 85.5323 172.663 82.9979 174.989C80.4575 177.319 80.6978 180.521 83.6135 183.207C90.2217 189.295 96.7652 191.792 104.907 191.331C111.326 190.968 115.628 188.877 121.643 183.196C126.518 178.592 127.144 176.176 124.205 173.305C121.543 170.705 119.144 171.145 114.596 175.068Z" fill="#FB653C"/>
<path fill-rule="evenodd" clip-rule="evenodd" d="M22.2324 2.04389C21.3874 2.86996 21.1937 3.83909 21.4738 5.83735C21.9874 9.4983 30.935 27.6006 34.0397 31.2616C35.424 32.8933 37.0985 35.8264 37.7606 37.7792C38.4227 39.7319 39.9899 42.4383 41.2426 43.7924C43.1452 45.85 43.5198 46.7624 43.5198 49.3395C43.5198 53.1106 44.7171 55.5235 48.9989 60.3824C50.8111 62.4387 52.2939 64.6841 52.2939 65.3724C52.2939 68.6431 54.5705 73.6826 57.7177 77.3765C59.5602 79.5389 61.068 81.4554 61.068 81.6347C61.068 81.8141 57.9552 84.407 54.15 87.3961C38.4666 99.718 31.014 107.408 22.8412 119.7C11.6448 136.54 4.78274 154.355 2.06411 173.638C0.821561 182.454 0.613007 205.324 1.72664 210.699C4.4392 223.791 5.16475 226.415 8.62648 235.637C16.0312 255.365 31.6174 276.805 46.8337 288.193C47.7003 288.841 46.6285 289 41.2743 289.017C34.7976 289.037 34.5938 289.085 32.5899 291.042C30.8722 292.72 30.6077 293.387 30.9667 295.139C31.2023 296.289 32.2059 298.057 33.1967 299.068L34.9981 300.905H169.708C318.042 300.905 306.157 301.244 308.435 296.942C309.895 294.183 309.698 293.096 307.347 290.95C305.418 289.191 304.839 289.036 300.091 289.017C295.588 288.998 295.087 288.881 296.146 288.097C307.781 279.478 318.052 264.341 321.231 251.129C321.942 248.173 322.228 247.815 324.001 247.652C334.948 246.652 348.317 240.924 355.179 234.294C360.614 229.043 358.136 223.876 348.256 219.858C342.848 217.659 333.932 215.199 331.37 215.199C329.605 215.199 323.513 217.452 318.341 220.017L315.429 221.462L314.123 219.906C312.359 217.803 312.482 216.127 314.546 214.11C316.267 212.429 316.315 212.424 324.17 212.884C331.731 213.328 332.121 213.287 333.396 211.911C334.281 210.956 334.704 209.609 334.658 207.898C334.522 202.831 326.675 195.95 318.142 193.415C312.104 191.621 302.688 191.652 297.686 193.48C292.915 195.224 288.289 200.065 286.84 204.835C285.574 208.997 285.534 216.541 286.758 220.473C287.594 223.16 290.536 228.957 291.97 230.741C292.913 231.916 286.351 238.473 281.929 240.775C270.653 246.646 263.166 244.153 257.387 232.603L255.111 228.055L255.12 218.166C255.125 211.955 255.502 206.56 256.132 203.662C257.698 196.462 257.536 167.628 255.879 158.501C251.587 134.867 238.117 111.688 218.05 93.4094C205.109 81.6202 191.848 73.5698 174.457 66.9435C157.981 60.6665 140.515 58.2523 121.137 59.5741C114.639 60.0171 107.752 60.8973 104.601 61.6864C101.631 62.4301 97.9537 63.1836 96.4284 63.3616C93.7867 63.6689 93.4911 63.5139 90.1765 60.091C88.2631 58.1145 84.9721 55.5928 82.8629 54.4878C79.6739 52.8159 78.6709 51.8303 76.8992 48.6275C75.2463 45.639 73.727 44.0548 70.1121 41.5515C67.5507 39.7781 64.3921 37.2452 63.0928 35.9227C44.3385 16.8347 31.099 4.1951 27.8047 2.2331C25.1421 0.646888 23.7126 0.598761 22.2324 2.04389ZM79.8541 63.7407C91.9016 76.3474 94.7019 79.7202 93.8279 80.57C92.968 81.4053 56.1518 42.8173 44.2669 28.6245C39.7273 23.2033 64.0607 47.214 79.8541 63.7407ZM258.823 39.5025C258.823 40.1071 259.15 40.4947 259.549 40.3648C259.948 40.235 260.274 39.8473 260.274 39.5025C260.274 39.1577 259.948 38.7701 259.549 38.6402C259.15 38.5103 258.823 38.898 258.823 39.5025ZM149.5 72.8479C169.76 76.0955 187.66 84.1321 204.921 97.7303C224.888 113.461 239.487 137.243 243.641 160.809C245.115 169.164 245.137 184.468 243.699 199.706C242.339 214.116 242.322 224.972 243.652 230.059C246.176 239.717 252.674 248.111 260.51 251.834C264.295 253.631 265.09 253.758 272.659 253.762C280.634 253.767 280.841 253.728 286.071 251.289C290.057 249.43 292.601 247.619 296.26 244.037C300.979 239.418 305.374 233.12 305.387 230.959C305.391 230.381 304.119 228.007 302.562 225.685C297.81 218.597 296.444 213.272 297.986 207.848C299.929 201.018 309.41 198.097 316.867 202.031C318.848 203.076 318.988 203.281 317.735 203.304C316.913 203.32 314.786 203.807 313.01 204.389C302.577 207.803 298.99 218.281 305.582 226.092C308.018 228.978 313.482 231.665 316.935 231.674C318.287 231.678 322.954 230.267 327.463 228.491L335.562 225.301L339.544 226.681C342 227.531 343.527 228.439 343.527 229.046C343.527 229.605 341.585 230.971 339.043 232.198C334.55 234.369 332.694 234.704 318.027 236C312.43 236.496 311.965 237.043 309.761 245.733C306.684 257.867 302.661 264.798 293.588 273.601C288.141 278.886 282.987 282.489 275.882 285.981L271.006 288.378H232.262H193.518L189.137 283.842C177.129 271.408 174.062 262.425 176.053 245.526C176.575 241.102 176.497 240.414 175.319 238.994C172.378 235.449 166.846 238.127 164.962 244.007C163.799 247.639 163.376 261.133 164.291 265.436C164.714 267.428 166.247 271.365 167.698 274.186L170.336 279.315L163.116 279.005C157.643 278.77 154.674 278.274 150.85 276.957C140.769 273.489 131.288 265.413 126.948 256.599C124.767 252.17 124.412 250.749 124.07 245.075C123.57 236.794 124.495 232.073 127.89 225.583C129.373 222.75 130.586 219.563 130.586 218.5C130.586 215.029 126.127 212.53 122.674 214.067C120.613 214.985 115.544 222.989 113.817 228.055C108.228 244.449 112.069 261.074 124.433 274.001C129.466 279.264 133.733 282.45 140.333 285.873L145.097 288.344L107.482 288.361L69.8658 288.378L65.3154 285.658C54.1365 278.975 43.2248 269.171 35.3018 258.693C12.29 228.259 6.55916 186.755 20.375 150.59C28.2454 129.989 41.1649 112.381 57.8911 99.4622L63.2508 95.3219L67.0432 98.3394C72.3596 102.569 75.9415 103.976 81.3929 103.976C90.0422 103.976 99.4838 97.8522 103.684 89.5183C105.628 85.6603 105.763 84.9641 105.414 80.5489C105.206 77.9164 104.837 75.133 104.594 74.3636C104.17 73.0233 104.47 72.9336 111.801 72.2111C126.873 70.7251 137.364 70.9024 149.5 72.8479ZM322.317 81.2853C320.411 81.8055 319.608 83.3442 321.242 83.3442C322.724 83.3442 324.966 82.1391 324.966 81.3433C324.966 80.6399 324.703 80.634 322.317 81.2853ZM95.9944 136.324C88.3414 139.123 82.4667 147.43 82.408 155.535C82.2973 170.802 97.455 180.643 111.962 174.722C115.614 173.232 120.792 168.118 122.571 164.246C124.892 159.19 124.782 151.546 122.319 146.893C120.164 142.823 114.832 137.978 111.262 136.847C107.117 135.534 98.9209 135.253 95.9944 136.324ZM102.707 147.459C104.29 149.161 105.13 151.974 104.519 153.529C103.985 154.888 100.771 156.524 98.6347 156.524C94.8153 156.524 92.5948 152.182 94.5352 148.507C95.5955 146.499 96.3542 146.1 99.253 146.027C100.596 145.994 101.815 146.499 102.707 147.459ZM117.425 172.924C116.311 173.602 114.489 175.112 113.375 176.279C110.55 179.239 106.89 180.917 103.257 180.917C99.3542 180.917 96.2711 179.659 91.9657 176.31C88.1706 173.359 85.7287 172.962 83.2807 174.898C82.1468 175.796 81.7209 176.815 81.7209 178.635C81.7209 180.809 82.1617 181.519 85.0619 184.02C94.1215 191.833 106.066 193.465 114.762 188.078C119.828 184.94 124.317 180.99 125.21 178.884C126.254 176.423 125.136 173.495 122.747 172.432C120.482 171.423 119.784 171.488 117.425 172.924Z" fill="#FE4B20"/>
<path fill-rule="evenodd" clip-rule="evenodd" d="M22.2324 2.04389C21.3874 2.86996 21.1937 3.83909 21.4738 5.83735C21.9874 9.4983 30.935 27.6006 34.0397 31.2616C35.424 32.8933 37.0985 35.8264 37.7606 37.7792C38.4227 39.7319 39.9899 42.4383 41.2426 43.7924C43.1452 45.85 43.5198 46.7624 43.5198 49.3395C43.5198 53.1106 44.7171 55.5235 48.9989 60.3824C50.8111 62.4386 52.2939 64.6841 52.2939 65.3724C52.2939 68.6431 54.5705 73.6826 57.7177 77.3765C59.5602 79.5389 61.068 81.4554 61.068 81.6347C61.068 81.814 57.9552 84.407 54.15 87.3961C38.4666 99.718 31.014 107.408 22.8412 119.7C11.6448 136.54 4.78274 154.355 2.06411 173.638C0.821561 182.454 0.613007 205.324 1.72664 210.699C4.4392 223.791 5.16475 226.415 8.62648 235.637C16.0312 255.365 31.6174 276.805 46.8337 288.193C47.7003 288.841 46.6285 289 41.2743 289.017C34.7976 289.037 34.5938 289.085 32.5899 291.042C30.8722 292.72 30.6077 293.387 30.9667 295.139C31.2023 296.289 32.2059 298.057 33.1967 299.068L34.9981 300.905H169.708C318.042 300.905 306.157 301.244 308.435 296.942C309.895 294.183 309.698 293.096 307.347 290.95C305.418 289.191 304.839 289.036 300.091 289.017C295.588 288.998 295.087 288.881 296.146 288.097C307.781 279.478 318.052 264.341 321.231 251.129C321.942 248.173 322.228 247.815 324.001 247.652C334.948 246.652 348.317 240.924 355.179 234.294C360.614 229.043 358.136 223.876 348.256 219.858C342.848 217.659 333.932 215.199 331.37 215.199C329.605 215.199 323.513 217.452 318.341 220.017L315.429 221.462L314.123 219.906C312.359 217.802 312.482 216.127 314.546 214.11C316.267 212.429 316.315 212.423 324.17 212.884C331.731 213.328 332.121 213.287 333.396 211.911C334.281 210.956 334.704 209.609 334.658 207.898C334.522 202.831 326.675 195.95 318.142 193.415C312.104 191.621 302.688 191.652 297.686 193.48C292.915 195.224 288.289 200.065 286.84 204.835C285.574 208.997 285.534 216.541 286.758 220.473C287.594 223.16 290.536 228.957 291.97 230.741C292.913 231.916 286.351 238.473 281.929 240.775C270.653 246.646 263.166 244.153 257.387 232.603L255.111 228.055L255.12 218.166C255.125 211.955 255.502 206.56 256.132 203.662C257.698 196.462 257.536 167.628 255.879 158.501C251.587 134.867 238.117 111.688 218.051 93.4094C205.109 81.6202 191.848 73.5698 174.457 66.9435C157.981 60.6665 140.515 58.2523 121.137 59.5741C114.639 60.0171 107.752 60.8973 104.601 61.6864C101.631 62.4301 97.9538 63.1836 96.4284 63.3616C93.7867 63.6689 93.4911 63.5139 90.1765 60.091C88.2631 58.1145 84.9721 55.5928 82.8629 54.4878C79.6739 52.8159 78.6709 51.8303 76.8992 48.6275C75.2463 45.639 73.7271 44.0548 70.1121 41.5515C67.5508 39.7781 64.3921 37.2452 63.0928 35.9227C44.3385 16.8347 31.099 4.1951 27.8047 2.2331C25.1421 0.646888 23.7126 0.598761 22.2324 2.04389ZM79.8541 63.7407C91.9016 76.3474 94.7019 79.7202 93.8279 80.57C92.968 81.4053 56.1518 42.8173 44.2669 28.6245C39.7274 23.2033 64.0607 47.214 79.8541 63.7407ZM258.823 39.5025C258.823 40.1071 259.15 40.4947 259.549 40.3648C259.948 40.235 260.274 39.8473 260.274 39.5025C260.274 39.1577 259.948 38.7701 259.549 38.6402C259.15 38.5103 258.823 38.898 258.823 39.5025ZM149.5 72.8479C169.76 76.0955 187.66 84.1321 204.921 97.7302C224.888 113.461 239.487 137.243 243.641 160.809C245.115 169.164 245.137 184.468 243.699 199.706C242.339 214.116 242.322 224.972 243.652 230.059C246.176 239.717 252.675 248.111 260.51 251.834C264.295 253.631 265.09 253.758 272.659 253.762C280.634 253.767 280.841 253.728 286.071 251.289C290.057 249.43 292.601 247.619 296.26 244.037C300.979 239.418 305.374 233.12 305.387 230.959C305.391 230.381 304.119 228.007 302.562 225.685C297.81 218.597 296.444 213.272 297.986 207.848C299.929 201.018 309.41 198.097 316.867 202.031C318.848 203.076 318.988 203.281 317.735 203.304C316.913 203.32 314.786 203.807 313.01 204.389C302.577 207.803 298.99 218.281 305.582 226.092C308.018 228.978 313.483 231.665 316.935 231.674C318.287 231.678 322.955 230.267 327.463 228.491L335.562 225.301L339.544 226.681C342 227.531 343.527 228.439 343.527 229.046C343.527 229.605 341.585 230.971 339.043 232.198C334.55 234.369 332.694 234.704 318.028 236C312.43 236.496 311.965 237.043 309.761 245.733C306.684 257.867 302.661 264.798 293.588 273.601C288.141 278.886 282.987 282.489 275.882 285.981L271.006 288.378H232.262H193.518L189.137 283.842C177.129 271.408 174.062 262.425 176.053 245.526C176.575 241.102 176.497 240.414 175.319 238.994C172.378 235.449 166.846 238.127 164.962 244.007C163.799 247.639 163.376 261.133 164.291 265.436C164.714 267.428 166.247 271.365 167.698 274.186L170.336 279.315L163.116 279.005C157.643 278.77 154.674 278.274 150.85 276.957C140.769 273.489 131.288 265.413 126.948 256.599C124.767 252.17 124.412 250.749 124.07 245.075C123.57 236.794 124.495 232.072 127.89 225.583C129.373 222.75 130.586 219.563 130.586 218.5C130.586 215.029 126.127 212.53 122.674 214.067C120.613 214.985 115.544 222.989 113.817 228.055C108.228 244.449 112.069 261.074 124.433 274.001C129.466 279.264 133.733 282.45 140.333 285.873L145.097 288.343L107.482 288.361L69.8658 288.378L65.3154 285.658C54.1365 278.975 43.2248 269.171 35.3018 258.693C12.29 228.259 6.55916 186.755 20.375 150.59C28.2454 129.989 41.165 112.381 57.8911 99.4622L63.2508 95.3219L67.0432 98.3394C72.3596 102.569 75.9415 103.976 81.3929 103.976C90.0422 103.976 99.4838 97.8522 103.684 89.5183C105.628 85.6603 105.763 84.9641 105.414 80.5489C105.206 77.9164 104.837 75.133 104.594 74.3636C104.17 73.0233 104.47 72.9336 111.801 72.2111C126.873 70.7251 137.364 70.9024 149.5 72.8479ZM322.317 81.2853C320.411 81.8055 319.608 83.3442 321.242 83.3442C322.724 83.3442 324.966 82.1391 324.966 81.3433C324.966 80.6399 324.703 80.634 322.317 81.2853ZM95.9944 136.324C88.3414 139.123 82.4667 147.43 82.408 155.535C82.2973 170.802 97.455 180.643 111.962 174.722C115.614 173.232 120.792 168.118 122.571 164.246C124.892 159.19 124.782 151.546 122.319 146.893C120.164 142.823 114.832 137.978 111.262 136.847C107.117 135.534 98.9209 135.253 95.9944 136.324ZM102.707 147.459C104.29 149.161 105.111 151.945 104.5 153.5C103.5 154.5 100.752 156.494 98.6158 156.494C94.7964 156.494 92.5948 152.182 94.5352 148.507C95.5955 146.499 96.3542 146.1 99.253 146.027C100.596 145.994 101.815 146.499 102.707 147.459Z" fill="#E9E9E9"/>
<path fill-rule="evenodd" clip-rule="evenodd" d="M22.0084 2.75524C20.9818 4.62824 21.8214 7.30885 26.496 17.0872C31.1018 26.7205 33.2049 30.3979 34.8875 31.762C35.8303 32.5267 36.9089 34.6984 38.8257 39.6957C39.2833 40.8903 40.4833 42.7303 41.4923 43.7852C42.8483 45.2033 43.4429 46.6708 43.7736 49.4173C44.3176 53.94 45.2429 55.7688 49.1177 59.9815C51.3409 62.3978 52.3081 64.1304 52.873 66.7068C54.0069 71.8795 55.1449 74.0887 58.6086 77.8373C60.3324 79.7037 61.743 81.3948 61.743 81.5952C61.743 81.7963 58.0619 84.8243 53.5622 88.325C34.6735 103.022 24.8661 114.59 15.2064 133.567C5.29439 153.041 1.03692 171.693 1.01262 195.75C0.981572 226.599 16.6859 260.616 41.3135 283.045L47.8934 289.038H41.9607C35.7919 289.038 32.5981 289.979 31.7902 292.034C30.9249 294.237 31.4156 296.803 33.026 298.501L34.6816 300.245H169.977H305.273L307.021 298.217C309.245 295.635 309.269 293.024 307.088 291.022C305.698 289.746 304.482 289.427 300.061 289.177L294.714 288.875L299.138 285.209C308.274 277.638 318.115 262.464 320.687 251.981L321.772 247.558L324.888 247.153C335.095 245.826 343.848 242.42 351.844 236.663C357.089 232.887 358.541 230.178 357.111 226.835C355.944 224.104 353.407 222.298 347.27 219.826C335.497 215.084 330.658 214.824 322.522 218.495C315.852 221.506 315.458 221.572 313.935 219.927C312.148 217.998 312.546 215.539 314.968 213.549C317.268 211.659 316.826 211.68 327.689 212.948C333.27 213.6 336.04 209.632 333.437 204.714C331.757 201.542 325.247 196.279 321.084 194.729C315.134 192.515 308.409 191.741 302.67 192.608C291.657 194.273 286.134 201.18 286.175 213.232C286.193 218.606 287.379 222.472 290.696 227.973L292.635 231.188L290.884 233.655C285.795 240.83 274.124 245.76 267.379 243.586C261.389 241.655 255.751 232.834 254.604 223.601C254.042 219.071 254.168 216.222 255.329 207.262C258.744 180.908 257.627 161.565 251.657 143.668C244.49 122.183 228.984 101.766 206.853 84.672C195.535 75.9287 178.887 67.8724 163.255 63.5726C145.972 58.8186 118.748 58.2444 103.251 62.3068C93.8063 64.783 94.5893 64.907 89.8242 60.1833C87.441 57.8204 84.09 55.2967 82.1712 54.4186C79.2885 53.0994 78.4584 52.2806 76.8311 49.1464C75.3807 46.3544 73.7953 44.6205 70.422 42.1396C67.9571 40.3266 58.2921 31.3387 48.9449 22.1662C39.5971 12.9944 30.7103 4.61308 29.1964 3.54176C26.085 1.34044 22.9702 0.999597 22.0084 2.75524ZM76.1251 59.4601C92.2655 76.0909 94.4198 78.6298 93.9636 80.479C93.6214 81.8668 91.6924 80.0096 71.9365 59.2807C52.5923 38.9843 40.102 24.953 40.1783 23.6068C40.2167 22.9343 54.5671 37.2471 76.1251 59.4601ZM149.5 72.8479C169.76 76.0955 187.66 84.1321 204.921 97.7303C224.888 113.461 239.487 137.243 243.641 160.809C245.115 169.164 245.137 184.468 243.699 199.706C242.339 214.116 242.322 224.972 243.652 230.059C246.176 239.717 252.675 248.111 260.511 251.834C264.295 253.631 265.09 253.758 272.659 253.762C280.634 253.767 280.841 253.728 286.071 251.289C290.057 249.43 292.601 247.619 296.26 244.037C300.979 239.418 305.374 233.12 305.387 230.959C305.391 230.381 304.119 228.007 302.562 225.685C297.81 218.597 296.444 213.272 297.986 207.848C299.929 201.018 309.41 198.097 316.867 202.031C318.848 203.076 318.988 203.281 317.735 203.304C316.913 203.32 314.787 203.807 313.01 204.389C302.577 207.803 298.99 218.281 305.582 226.092C308.018 228.978 313.483 231.665 316.935 231.674C318.287 231.678 322.955 230.267 327.463 228.491L335.562 225.301L339.544 226.681C341.948 227.514 343.527 228.443 343.527 229.025C343.527 231.353 334.526 234.696 326.654 235.292C313.835 236.262 313.504 236.325 312.386 237.992C311.801 238.864 310.619 242.348 309.761 245.733C306.684 257.867 302.661 264.798 293.588 273.601C288.131 278.895 282.233 283.008 275.527 286.196L270.936 288.378H232.227H193.518L189.137 283.842C177.129 271.408 174.062 262.425 176.053 245.526C176.575 241.102 176.497 240.414 175.319 238.994C172.378 235.449 166.846 238.127 164.962 244.007C163.799 247.639 163.376 261.133 164.291 265.436C164.714 267.428 166.264 271.396 167.734 274.255C169.204 277.114 170.407 279.577 170.407 279.728C170.407 280.333 158.335 279.166 154.475 278.187C142.913 275.258 131.869 266.592 126.939 256.581C124.768 252.171 124.412 250.744 124.07 245.075C123.57 236.794 124.495 232.072 127.89 225.583C129.373 222.75 130.586 219.563 130.586 218.5C130.586 215.029 126.127 212.53 122.675 214.067C120.613 214.985 115.544 222.989 113.817 228.055C108.228 244.449 112.069 261.074 124.433 274.001C129.466 279.264 133.733 282.45 140.333 285.873L145.097 288.343L107.48 288.361L69.8624 288.378L66.3089 286.27C54.5091 279.269 43.3484 269.347 35.3127 258.711C12.2847 228.233 6.55584 186.765 20.3751 150.59C28.2455 129.989 41.165 112.381 57.8912 99.4622L63.2508 95.3219L67.0432 98.3394C72.3597 102.569 75.9415 103.976 81.393 103.976C90.0422 103.976 99.4839 97.8522 103.684 89.5183C105.628 85.6603 105.763 84.9641 105.414 80.5489C105.206 77.9164 104.837 75.133 104.594 74.3636C104.17 73.0233 104.47 72.9336 111.801 72.2111C126.873 70.7251 137.364 70.9024 149.5 72.8479ZM321.592 82.0257C320.773 82.5426 320.87 82.6665 322.098 82.6751C322.934 82.6803 323.617 82.3883 323.617 82.0257C323.617 81.1996 322.901 81.1996 321.592 82.0257ZM95.9945 136.324C88.3414 139.123 82.4668 147.43 82.4081 155.535C82.2974 170.802 97.455 180.643 111.962 174.722C115.614 173.232 120.792 168.118 122.571 164.246C124.892 159.19 124.782 151.546 122.319 146.893C120.164 142.823 114.832 137.978 111.262 136.847C107.117 135.534 98.921 135.253 95.9945 136.324ZM103.42 147.685C105.917 150.415 105.364 153.956 102.19 155.559C98.0004 157.676 94.2801 155.98 93.6875 151.682C92.9282 146.183 99.5561 143.461 103.42 147.685Z" fill="#ACACAC"/>
<mask id="path-6-outside-1_13_26" maskUnits="userSpaceOnUse" x="0.135864" y="0.619507" width="359" height="301" fill="black">
<rect fill="white" x="0.135864" y="0.619507" width="359" height="301"/>
<path fill-rule="evenodd" clip-rule="evenodd" d="M22.7319 2.38541C22.2865 2.82054 21.9233 4.08107 21.9254 5.18733C21.9294 7.94243 31.4034 27.3178 34.7606 31.4363C36.2522 33.2658 37.6607 35.533 37.8909 36.4738C38.5226 39.0523 40.1074 41.9392 41.9493 43.8643C43.1297 45.0978 43.7088 46.6293 43.9855 49.2479C44.4026 53.195 45.6789 55.6462 49.9992 60.7958C52.0098 63.1916 52.8838 64.9274 53.1943 67.138C53.7369 71.0046 55.0902 73.5534 58.9501 77.9771L62.0325 81.5102L59.6595 83.5809C58.3535 84.7202 53.39 88.7668 48.6297 92.5741C43.8688 96.3814 37.5595 102.167 34.6094 105.43C19.6826 121.941 8.01367 145.059 3.77442 166.517C2.01892 175.401 0.716978 193.28 1.26097 201.025C3.49162 232.779 19.8527 264.749 44.6875 285.882L48.2167 288.885L41.5119 289.148C35.5732 289.381 34.61 289.592 33.0887 290.988C30.8696 293.024 30.8797 295.619 33.1184 298.217L34.8658 300.245H169.859H304.852L306.81 298.198C311.498 293.296 307.399 289.101 297.875 289.054L294.744 289.038L301.974 281.951C311.885 272.234 318.843 260.725 320.608 251.129C321.263 247.567 321.994 246.844 324.941 246.844C333.6 246.844 349.448 239.782 355.234 233.345C359.344 228.772 357.184 224.455 348.937 220.76C343.456 218.304 334.737 215.858 331.463 215.858C329.345 215.858 322.851 218.19 317.597 220.837L315.29 221.999L313.719 220.082C311.639 217.542 311.735 216.155 314.157 213.79L316.171 211.822L324.18 212.28C332.073 212.731 332.204 212.715 333.302 211.184C334.833 209.049 334.703 207.553 332.692 204.202C327.854 196.137 314.662 191.035 303.144 192.775C297.357 193.649 294.05 195.281 290.992 198.771C287.805 202.407 286.495 206.425 286.495 212.56C286.495 218.503 287.704 222.916 290.521 227.254C291.648 228.988 292.57 230.811 292.57 231.303C292.57 232.745 286.598 238.818 283.356 240.675C281.715 241.614 278.491 242.954 276.191 243.653C270.955 245.245 266.966 244.517 263.101 241.263C255.112 234.537 252.659 223.93 255.154 206.908C257.533 190.689 257.516 171.264 255.112 157.635C252.878 144.963 246.414 129.642 238.093 117.297C225.679 98.8794 206.315 81.9163 187.724 73.1743C165.473 62.7116 153.065 59.9189 129.236 60.0119C115.315 60.0653 107.833 60.89 99.9381 63.2397C94.7337 64.7883 93.9136 64.5734 90.0949 60.6652C88.1814 58.7072 84.8101 56.165 82.6024 55.0153C79.1299 53.2075 78.3173 52.4019 76.582 49.0436C74.9791 45.9417 73.7305 44.6007 70.372 42.373C68.0597 40.8389 59.4772 32.9256 51.3004 24.7869C29.2976 2.8891 25.3695 -0.191028 22.7319 2.38541ZM52.7043 35.3821C66.8644 49.4121 90.2589 73.562 92.4605 76.4219C94.5501 79.1361 95.2007 81.3664 93.9028 81.3664C91.9523 81.3664 51.048 38.033 40.2275 24.5041C39.72 23.8698 39.5877 23.3503 39.9332 23.3503C40.2788 23.3503 46.0258 28.7643 52.7043 35.3821ZM149.147 72.4471C163.482 74.9682 175.075 78.8843 185.773 84.8191C212.333 99.5525 231.616 121.754 240.242 147.529C244.793 161.129 246.055 174.997 244.33 192.454C242.532 210.661 242.244 224.609 243.563 229.703C246.147 239.685 252.556 248.054 260.51 251.834C264.295 253.631 265.09 253.758 272.659 253.762C280.567 253.767 280.878 253.711 285.837 251.398C291.817 248.608 298.088 243.208 302.01 237.471C306.072 231.527 306.089 231.016 302.381 225.714C297.535 218.787 296.055 212.121 298.232 207.031C300.966 200.64 309.662 198.292 316.867 202L319.23 203.216L317.205 203.67C310.59 205.152 309.641 205.587 306.647 208.512C301.281 213.753 300.779 220.14 305.292 225.747C307.6 228.617 313.589 231.681 316.887 231.681C318.283 231.681 322.903 230.287 327.476 228.486L335.587 225.291L339.769 226.77C344.891 228.582 345.229 228.887 343.526 230.159C338.772 233.708 332.388 235.404 321.485 236.013C312.453 236.517 312.093 236.8 310.138 244.932C307.345 256.552 304.534 262.058 297.171 270.32C291.142 277.084 285.249 281.622 276.822 285.989L272.21 288.378H232.506H192.801L188.437 283.599C176.778 270.833 173.952 262.037 176.071 245.118C176.613 240.791 176.546 240.315 175.22 239.019C173.107 236.955 170.016 237.178 167.739 239.559C165.026 242.396 163.655 247.981 163.674 256.118C163.694 264.489 164.351 267.477 167.576 273.874C168.948 276.594 170.187 279.089 170.33 279.418C170.812 280.526 156.799 279.288 152.184 277.814C142.816 274.824 133.131 267.654 128.871 260.554C125.035 254.161 123.837 249.798 123.837 242.229C123.837 234.886 125.046 230.285 128.588 224.155C131.123 219.766 131.189 217.077 128.808 215.247C126.038 213.118 123.014 213.449 120.59 216.146C117.887 219.153 114.001 227.021 112.59 232.34C110.814 239.04 111.116 249.153 113.289 255.744C117.534 268.62 128.246 280.279 141.427 286.37L145.772 288.377L107.351 288.378L68.9297 288.378L60.3155 282.749C40.7283 269.948 25.08 248.682 17.9156 225.124C6.54839 187.749 14.7475 147.529 40.0304 116.638C46.1865 109.116 57.4808 98.739 62.8742 95.6483C63.3298 95.3879 65.3039 96.5911 67.4995 98.468C72.3063 102.577 76.4592 104.012 82.5667 103.675C96.7099 102.894 108.755 88.0324 104.69 76.3784C104.087 74.6478 103.719 73.1084 103.874 72.9574C104.027 72.8071 107.747 72.2803 112.139 71.7878C122.182 70.6618 140.888 70.9947 149.147 72.4471ZM321.466 82.476C321.952 82.6665 322.535 82.6428 322.759 82.4239C322.983 82.205 322.585 82.0494 321.873 82.0778C321.087 82.1094 320.927 82.2657 321.466 82.476ZM95.9944 136.324C88.3414 139.123 82.4668 147.43 82.4081 155.535C82.2974 170.802 97.455 180.643 111.962 174.722C115.614 173.232 120.792 168.118 122.571 164.246C124.892 159.19 124.782 151.546 122.319 146.893C120.164 142.823 114.832 137.978 111.262 136.847C107.117 135.534 98.9209 135.254 95.9944 136.324ZM101.777 146.083C104.611 147.558 105.702 150.517 104.52 153.527C103.974 154.914 100.757 156.524 98.5295 156.524C94.7337 156.524 92.2033 151.487 94.1836 147.873C95.4423 145.575 99.1302 144.706 101.777 146.083Z"/>
</mask>
<path fill-rule="evenodd" clip-rule="evenodd" d="M22.7319 2.38541C22.2865 2.82054 21.9233 4.08107 21.9254 5.18733C21.9294 7.94243 31.4034 27.3178 34.7606 31.4363C36.2522 33.2658 37.6607 35.533 37.8909 36.4738C38.5226 39.0523 40.1074 41.9392 41.9493 43.8643C43.1297 45.0978 43.7088 46.6293 43.9855 49.2479C44.4026 53.195 45.6789 55.6462 49.9992 60.7958C52.0098 63.1916 52.8838 64.9274 53.1943 67.138C53.7369 71.0046 55.0902 73.5534 58.9501 77.9771L62.0325 81.5102L59.6595 83.5809C58.3535 84.7202 53.39 88.7668 48.6297 92.5741C43.8688 96.3814 37.5595 102.167 34.6094 105.43C19.6826 121.941 8.01367 145.059 3.77442 166.517C2.01892 175.401 0.716978 193.28 1.26097 201.025C3.49162 232.779 19.8527 264.749 44.6875 285.882L48.2167 288.885L41.5119 289.148C35.5732 289.381 34.61 289.592 33.0887 290.988C30.8696 293.024 30.8797 295.619 33.1184 298.217L34.8658 300.245H169.859H304.852L306.81 298.198C311.498 293.296 307.399 289.101 297.875 289.054L294.744 289.038L301.974 281.951C311.885 272.234 318.843 260.725 320.608 251.129C321.263 247.567 321.994 246.844 324.941 246.844C333.6 246.844 349.448 239.782 355.234 233.345C359.344 228.772 357.184 224.455 348.937 220.76C343.456 218.304 334.737 215.858 331.463 215.858C329.345 215.858 322.851 218.19 317.597 220.837L315.29 221.999L313.719 220.082C311.639 217.542 311.735 216.155 314.157 213.79L316.171 211.822L324.18 212.28C332.073 212.731 332.204 212.715 333.302 211.184C334.833 209.049 334.703 207.553 332.692 204.202C327.854 196.137 314.662 191.035 303.144 192.775C297.357 193.649 294.05 195.281 290.992 198.771C287.805 202.407 286.495 206.425 286.495 212.56C286.495 218.503 287.704 222.916 290.521 227.254C291.648 228.988 292.57 230.811 292.57 231.303C292.57 232.745 286.598 238.818 283.356 240.675C281.715 241.614 278.491 242.954 276.191 243.653C270.955 245.245 266.966 244.517 263.101 241.263C255.112 234.537 252.659 223.93 255.154 206.908C257.533 190.689 257.516 171.264 255.112 157.635C252.878 144.963 246.414 129.642 238.093 117.297C225.679 98.8794 206.315 81.9163 187.724 73.1743C165.473 62.7116 153.065 59.9189 129.236 60.0119C115.315 60.0653 107.833 60.89 99.9381 63.2397C94.7337 64.7883 93.9136 64.5734 90.0949 60.6652C88.1814 58.7072 84.8101 56.165 82.6024 55.0153C79.1299 53.2075 78.3173 52.4019 76.582 49.0436C74.9791 45.9417 73.7305 44.6007 70.372 42.373C68.0597 40.8389 59.4772 32.9256 51.3004 24.7869C29.2976 2.8891 25.3695 -0.191028 22.7319 2.38541ZM52.7043 35.3821C66.8644 49.4121 90.2589 73.562 92.4605 76.4219C94.5501 79.1361 95.2007 81.3664 93.9028 81.3664C91.9523 81.3664 51.048 38.033 40.2275 24.5041C39.72 23.8698 39.5877 23.3503 39.9332 23.3503C40.2788 23.3503 46.0258 28.7643 52.7043 35.3821ZM149.147 72.4471C163.482 74.9682 175.075 78.8843 185.773 84.8191C212.333 99.5525 231.616 121.754 240.242 147.529C244.793 161.129 246.055 174.997 244.33 192.454C242.532 210.661 242.244 224.609 243.563 229.703C246.147 239.685 252.556 248.054 260.51 251.834C264.295 253.631 265.09 253.758 272.659 253.762C280.567 253.767 280.878 253.711 285.837 251.398C291.817 248.608 298.088 243.208 302.01 237.471C306.072 231.527 306.089 231.016 302.381 225.714C297.535 218.787 296.055 212.121 298.232 207.031C300.966 200.64 309.662 198.292 316.867 202L319.23 203.216L317.205 203.67C310.59 205.152 309.641 205.587 306.647 208.512C301.281 213.753 300.779 220.14 305.292 225.747C307.6 228.617 313.589 231.681 316.887 231.681C318.283 231.681 322.903 230.287 327.476 228.486L335.587 225.291L339.769 226.77C344.891 228.582 345.229 228.887 343.526 230.159C338.772 233.708 332.388 235.404 321.485 236.013C312.453 236.517 312.093 236.8 310.138 244.932C307.345 256.552 304.534 262.058 297.171 270.32C291.142 277.084 285.249 281.622 276.822 285.989L272.21 288.378H232.506H192.801L188.437 283.599C176.778 270.833 173.952 262.037 176.071 245.118C176.613 240.791 176.546 240.315 175.22 239.019C173.107 236.955 170.016 237.178 167.739 239.559C165.026 242.396 163.655 247.981 163.674 256.118C163.694 264.489 164.351 267.477 167.576 273.874C168.948 276.594 170.187 279.089 170.33 279.418C170.812 280.526 156.799 279.288 152.184 277.814C142.816 274.824 133.131 267.654 128.871 260.554C125.035 254.161 123.837 249.798 123.837 242.229C123.837 234.886 125.046 230.285 128.588 224.155C131.123 219.766 131.189 217.077 128.808 215.247C126.038 213.118 123.014 213.449 120.59 216.146C117.887 219.153 114.001 227.021 112.59 232.34C110.814 239.04 111.116 249.153 113.289 255.744C117.534 268.62 128.246 280.279 141.427 286.37L145.772 288.377L107.351 288.378L68.9297 288.378L60.3155 282.749C40.7283 269.948 25.08 248.682 17.9156 225.124C6.54839 187.749 14.7475 147.529 40.0304 116.638C46.1865 109.116 57.4808 98.739 62.8742 95.6483C63.3298 95.3879 65.3039 96.5911 67.4995 98.468C72.3063 102.577 76.4592 104.012 82.5667 103.675C96.7099 102.894 108.755 88.0324 104.69 76.3784C104.087 74.6478 103.719 73.1084 103.874 72.9574C104.027 72.8071 107.747 72.2803 112.139 71.7878C122.182 70.6618 140.888 70.9947 149.147 72.4471ZM321.466 82.476C321.952 82.6665 322.535 82.6428 322.759 82.4239C322.983 82.205 322.585 82.0494 321.873 82.0778C321.087 82.1094 320.927 82.2657 321.466 82.476ZM95.9944 136.324C88.3414 139.123 82.4668 147.43 82.4081 155.535C82.2974 170.802 97.455 180.643 111.962 174.722C115.614 173.232 120.792 168.118 122.571 164.246C124.892 159.19 124.782 151.546 122.319 146.893C120.164 142.823 114.832 137.978 111.262 136.847C107.117 135.534 98.9209 135.254 95.9944 136.324ZM101.777 146.083C104.611 147.558 105.702 150.517 104.52 153.527C103.974 154.914 100.757 156.524 98.5295 156.524C94.7337 156.524 92.2033 151.487 94.1836 147.873C95.4423 145.575 99.1302 144.706 101.777 146.083Z" fill="#0B0B0B"/>
<path fill-rule="evenodd" clip-rule="evenodd" d="M22.7319 2.38541C22.2865 2.82054 21.9233 4.08107 21.9254 5.18733C21.9294 7.94243 31.4034 27.3178 34.7606 31.4363C36.2522 33.2658 37.6607 35.533 37.8909 36.4738C38.5226 39.0523 40.1074 41.9392 41.9493 43.8643C43.1297 45.0978 43.7088 46.6293 43.9855 49.2479C44.4026 53.195 45.6789 55.6462 49.9992 60.7958C52.0098 63.1916 52.8838 64.9274 53.1943 67.138C53.7369 71.0046 55.0902 73.5534 58.9501 77.9771L62.0325 81.5102L59.6595 83.5809C58.3535 84.7202 53.39 88.7668 48.6297 92.5741C43.8688 96.3814 37.5595 102.167 34.6094 105.43C19.6826 121.941 8.01367 145.059 3.77442 166.517C2.01892 175.401 0.716978 193.28 1.26097 201.025C3.49162 232.779 19.8527 264.749 44.6875 285.882L48.2167 288.885L41.5119 289.148C35.5732 289.381 34.61 289.592 33.0887 290.988C30.8696 293.024 30.8797 295.619 33.1184 298.217L34.8658 300.245H169.859H304.852L306.81 298.198C311.498 293.296 307.399 289.101 297.875 289.054L294.744 289.038L301.974 281.951C311.885 272.234 318.843 260.725 320.608 251.129C321.263 247.567 321.994 246.844 324.941 246.844C333.6 246.844 349.448 239.782 355.234 233.345C359.344 228.772 357.184 224.455 348.937 220.76C343.456 218.304 334.737 215.858 331.463 215.858C329.345 215.858 322.851 218.19 317.597 220.837L315.29 221.999L313.719 220.082C311.639 217.542 311.735 216.155 314.157 213.79L316.171 211.822L324.18 212.28C332.073 212.731 332.204 212.715 333.302 211.184C334.833 209.049 334.703 207.553 332.692 204.202C327.854 196.137 314.662 191.035 303.144 192.775C297.357 193.649 294.05 195.281 290.992 198.771C287.805 202.407 286.495 206.425 286.495 212.56C286.495 218.503 287.704 222.916 290.521 227.254C291.648 228.988 292.57 230.811 292.57 231.303C292.57 232.745 286.598 238.818 283.356 240.675C281.715 241.614 278.491 242.954 276.191 243.653C270.955 245.245 266.966 244.517 263.101 241.263C255.112 234.537 252.659 223.93 255.154 206.908C257.533 190.689 257.516 171.264 255.112 157.635C252.878 144.963 246.414 129.642 238.093 117.297C225.679 98.8794 206.315 81.9163 187.724 73.1743C165.473 62.7116 153.065 59.9189 129.236 60.0119C115.315 60.0653 107.833 60.89 99.9381 63.2397C94.7337 64.7883 93.9136 64.5734 90.0949 60.6652C88.1814 58.7072 84.8101 56.165 82.6024 55.0153C79.1299 53.2075 78.3173 52.4019 76.582 49.0436C74.9791 45.9417 73.7305 44.6007 70.372 42.373C68.0597 40.8389 59.4772 32.9256 51.3004 24.7869C29.2976 2.8891 25.3695 -0.191028 22.7319 2.38541ZM52.7043 35.3821C66.8644 49.4121 90.2589 73.562 92.4605 76.4219C94.5501 79.1361 95.2007 81.3664 93.9028 81.3664C91.9523 81.3664 51.048 38.033 40.2275 24.5041C39.72 23.8698 39.5877 23.3503 39.9332 23.3503C40.2788 23.3503 46.0258 28.7643 52.7043 35.3821ZM149.147 72.4471C163.482 74.9682 175.075 78.8843 185.773 84.8191C212.333 99.5525 231.616 121.754 240.242 147.529C244.793 161.129 246.055 174.997 244.33 192.454C242.532 210.661 242.244 224.609 243.563 229.703C246.147 239.685 252.556 248.054 260.51 251.834C264.295 253.631 265.09 253.758 272.659 253.762C280.567 253.767 280.878 253.711 285.837 251.398C291.817 248.608 298.088 243.208 302.01 237.471C306.072 231.527 306.089 231.016 302.381 225.714C297.535 218.787 296.055 212.121 298.232 207.031C300.966 200.64 309.662 198.292 316.867 202L319.23 203.216L317.205 203.67C310.59 205.152 309.641 205.587 306.647 208.512C301.281 213.753 300.779 220.14 305.292 225.747C307.6 228.617 313.589 231.681 316.887 231.681C318.283 231.681 322.903 230.287 327.476 228.486L335.587 225.291L339.769 226.77C344.891 228.582 345.229 228.887 343.526 230.159C338.772 233.708 332.388 235.404 321.485 236.013C312.453 236.517 312.093 236.8 310.138 244.932C307.345 256.552 304.534 262.058 297.171 270.32C291.142 277.084 285.249 281.622 276.822 285.989L272.21 288.378H232.506H192.801L188.437 283.599C176.778 270.833 173.952 262.037 176.071 245.118C176.613 240.791 176.546 240.315 175.22 239.019C173.107 236.955 170.016 237.178 167.739 239.559C165.026 242.396 163.655 247.981 163.674 256.118C163.694 264.489 164.351 267.477 167.576 273.874C168.948 276.594 170.187 279.089 170.33 279.418C170.812 280.526 156.799 279.288 152.184 277.814C142.816 274.824 133.131 267.654 128.871 260.554C125.035 254.161 123.837 249.798 123.837 242.229C123.837 234.886 125.046 230.285 128.588 224.155C131.123 219.766 131.189 217.077 128.808 215.247C126.038 213.118 123.014 213.449 120.59 216.146C117.887 219.153 114.001 227.021 112.59 232.34C110.814 239.04 111.116 249.153 113.289 255.744C117.534 268.62 128.246 280.279 141.427 286.37L145.772 288.377L107.351 288.378L68.9297 288.378L60.3155 282.749C40.7283 269.948 25.08 248.682 17.9156 225.124C6.54839 187.749 14.7475 147.529 40.0304 116.638C46.1865 109.116 57.4808 98.739 62.8742 95.6483C63.3298 95.3879 65.3039 96.5911 67.4995 98.468C72.3063 102.577 76.4592 104.012 82.5667 103.675C96.7099 102.894 108.755 88.0324 104.69 76.3784C104.087 74.6478 103.719 73.1084 103.874 72.9574C104.027 72.8071 107.747 72.2803 112.139 71.7878C122.182 70.6618 140.888 70.9947 149.147 72.4471ZM321.466 82.476C321.952 82.6665 322.535 82.6428 322.759 82.4239C322.983 82.205 322.585 82.0494 321.873 82.0778C321.087 82.1094 320.927 82.2657 321.466 82.476ZM95.9944 136.324C88.3414 139.123 82.4668 147.43 82.4081 155.535C82.2974 170.802 97.455 180.643 111.962 174.722C115.614 173.232 120.792 168.118 122.571 164.246C124.892 159.19 124.782 151.546 122.319 146.893C120.164 142.823 114.832 137.978 111.262 136.847C107.117 135.534 98.9209 135.254 95.9944 136.324ZM101.777 146.083C104.611 147.558 105.702 150.517 104.52 153.527C103.974 154.914 100.757 156.524 98.5295 156.524C94.7337 156.524 92.2033 151.487 94.1836 147.873C95.4423 145.575 99.1302 144.706 101.777 146.083Z" stroke="#141313" stroke-opacity="0.2" stroke-width="2" mask="url(#path-6-outside-1_13_26)"/>
<path fill-rule="evenodd" clip-rule="evenodd" d="M22.7319 2.38541C22.2865 2.82054 21.9233 4.08107 21.9254 5.18733C21.9294 7.94243 31.4034 27.3178 34.7606 31.4363C36.2522 33.2658 37.6607 35.533 37.8909 36.4738C38.5226 39.0523 40.1074 41.9392 41.9493 43.8643C43.1297 45.0978 43.7088 46.6293 43.9855 49.2479C44.4026 53.195 45.6789 55.6462 49.9992 60.7958C52.0098 63.1916 52.8838 64.9274 53.1943 67.138C53.7369 71.0046 55.0902 73.5534 58.9501 77.9771L62.0325 81.5102L59.6595 83.5809C58.3535 84.7202 53.39 88.7668 48.6297 92.5741C43.8688 96.3814 37.5595 102.167 34.6094 105.43C19.6826 121.941 8.01367 145.059 3.77442 166.517C2.01892 175.401 0.716978 193.28 1.26097 201.025C3.49162 232.779 19.8527 264.749 44.6875 285.882L48.2167 288.885L41.5119 289.148C35.5732 289.381 34.61 289.592 33.0887 290.988C30.8696 293.024 30.8797 295.619 33.1184 298.217L34.8658 300.245H169.859H304.852L306.81 298.198C311.498 293.296 307.399 289.101 297.875 289.054L294.744 289.038L301.974 281.951C311.885 272.234 318.843 260.725 320.608 251.129C321.263 247.567 321.994 246.844 324.941 246.844C333.6 246.844 349.448 239.782 355.234 233.345C359.344 228.772 357.184 224.455 348.937 220.76C343.456 218.304 334.737 215.858 331.463 215.858C329.345 215.858 322.851 218.19 317.597 220.837L315.29 221.999L313.719 220.082C311.639 217.542 311.735 216.155 314.157 213.79L316.171 211.822L324.18 212.28C332.073 212.731 332.204 212.715 333.302 211.184C334.833 209.049 334.703 207.553 332.692 204.202C327.854 196.137 314.662 191.035 303.144 192.775C297.357 193.649 294.05 195.281 290.992 198.771C287.805 202.407 286.495 206.425 286.495 212.56C286.495 218.503 287.704 222.916 290.521 227.254C291.648 228.988 292.57 230.811 292.57 231.303C292.57 232.745 286.598 238.818 283.356 240.675C281.715 241.614 278.491 242.954 276.191 243.653C270.955 245.245 266.966 244.517 263.101 241.263C255.112 234.537 252.659 223.93 255.154 206.908C257.533 190.689 257.516 171.264 255.112 157.635C252.878 144.963 246.414 129.642 238.093 117.297C225.679 98.8794 206.315 81.9163 187.724 73.1743C165.473 62.7116 153.065 59.9189 129.236 60.0119C115.315 60.0653 107.833 60.89 99.9381 63.2397C94.7337 64.7883 93.9136 64.5734 90.0949 60.6652C88.1814 58.7072 84.8101 56.165 82.6024 55.0153C79.1299 53.2075 78.3173 52.4019 76.582 49.0436C74.9791 45.9417 73.7305 44.6007 70.372 42.373C68.0597 40.8389 59.4772 32.9256 51.3004 24.7869C29.2976 2.8891 25.3695 -0.191028 22.7319 2.38541ZM52.7043 35.3821C66.8644 49.4121 90.2589 73.562 92.4605 76.4219C94.5501 79.1361 95.2007 81.3664 93.9028 81.3664C91.9523 81.3664 51.048 38.033 40.2275 24.5041C39.72 23.8698 39.5877 23.3503 39.9332 23.3503C40.2788 23.3503 46.0258 28.7643 52.7043 35.3821ZM149.147 72.4471C163.482 74.9682 175.075 78.8843 185.773 84.8191C212.333 99.5525 231.616 121.754 240.242 147.529C244.793 161.129 246.055 174.997 244.33 192.454C242.532 210.661 242.244 224.609 243.563 229.703C246.147 239.685 252.556 248.054 260.51 251.834C264.295 253.631 265.09 253.758 272.659 253.762C280.567 253.767 280.878 253.711 285.837 251.398C291.817 248.608 298.088 243.208 302.01 237.471C306.072 231.527 306.089 231.016 302.381 225.714C297.535 218.787 296.055 212.121 298.232 207.031C300.966 200.64 309.662 198.292 316.867 202L319.23 203.216L317.205 203.67C310.59 205.152 309.641 205.587 306.647 208.512C301.281 213.753 300.779 220.14 305.292 225.747C307.6 228.617 313.589 231.681 316.887 231.681C318.283 231.681 322.903 230.287 327.476 228.486L335.587 225.291L339.769 226.77C344.891 228.582 345.229 228.887 343.526 230.159C338.772 233.708 332.388 235.404 321.485 236.013C312.453 236.517 312.093 236.8 310.138 244.932C307.345 256.552 304.534 262.058 297.171 270.32C291.142 277.084 285.249 281.622 276.822 285.989L272.21 288.378H232.506H192.801L188.437 283.599C176.778 270.833 173.952 262.037 176.071 245.118C176.613 240.791 176.546 240.315 175.22 239.019C173.107 236.955 170.016 237.178 167.739 239.559C165.026 242.396 163.655 247.981 163.674 256.118C163.694 264.489 164.351 267.477 167.576 273.874C168.948 276.594 170.187 279.089 170.33 279.418C170.812 280.526 156.799 279.288 152.184 277.814C142.816 274.824 133.131 267.654 128.871 260.554C125.035 254.161 123.837 249.798 123.837 242.229C123.837 234.886 125.046 230.285 128.588 224.155C131.123 219.766 131.189 217.077 128.808 215.247C126.038 213.118 123.014 213.449 120.59 216.146C117.887 219.153 114.001 227.021 112.59 232.34C110.814 239.04 111.116 249.153 113.289 255.744C117.534 268.62 128.246 280.279 141.427 286.37L145.772 288.377L107.351 288.378L68.9297 288.378L60.3155 282.749C40.7283 269.948 25.08 248.682 17.9156 225.124C6.54839 187.749 14.7475 147.529 40.0304 116.638C46.1865 109.116 57.4808 98.739 62.8742 95.6483C63.3298 95.3879 65.3039 96.5911 67.4995 98.468C72.3063 102.577 76.4592 104.012 82.5667 103.675C96.7099 102.894 108.755 88.0324 104.69 76.3784C104.087 74.6478 103.719 73.1084 103.874 72.9574C104.027 72.8071 107.747 72.2803 112.139 71.7878C122.182 70.6618 140.888 70.9947 149.147 72.4471ZM321.466 82.476C321.952 82.6665 322.535 82.6428 322.759 82.4239C322.983 82.205 322.585 82.0494 321.873 82.0778C321.087 82.1094 320.927 82.2657 321.466 82.476ZM95.9944 136.324C88.3414 139.123 82.4668 147.43 82.4081 155.535C82.2974 170.802 97.455 180.643 111.962 174.722C115.614 173.232 120.792 168.118 122.571 164.246C124.892 159.19 124.782 151.546 122.319 146.893C120.164 142.823 114.832 137.978 111.262 136.847C107.117 135.534 98.9209 135.254 95.9944 136.324ZM101.777 146.083C104.611 147.558 105.702 150.517 104.52 153.527C103.974 154.914 100.757 156.524 98.5295 156.524C94.7337 156.524 92.2033 151.487 94.1836 147.873C95.4423 145.575 99.1302 144.706 101.777 146.083Z" stroke="#100F0F" stroke-opacity="0.2" stroke-width="2" mask="url(#path-6-outside-1_13_26)"/>
<path fill-rule="evenodd" clip-rule="evenodd" d="M22.7319 2.38541C22.2865 2.82054 21.9233 4.08107 21.9254 5.18733C21.9294 7.94243 31.4034 27.3178 34.7606 31.4363C36.2522 33.2658 37.6607 35.533 37.8909 36.4738C38.5226 39.0523 40.1074 41.9392 41.9493 43.8643C43.1297 45.0978 43.7088 46.6293 43.9855 49.2479C44.4026 53.195 45.6789 55.6462 49.9992 60.7958C52.0098 63.1916 52.8838 64.9274 53.1943 67.138C53.7369 71.0046 55.0902 73.5534 58.9501 77.9771L62.0325 81.5102L59.6595 83.5809C58.3535 84.7202 53.39 88.7668 48.6297 92.5741C43.8688 96.3814 37.5595 102.167 34.6094 105.43C19.6826 121.941 8.01367 145.059 3.77442 166.517C2.01892 175.401 0.716978 193.28 1.26097 201.025C3.49162 232.779 19.8527 264.749 44.6875 285.882L48.2167 288.885L41.5119 289.148C35.5732 289.381 34.61 289.592 33.0887 290.988C30.8696 293.024 30.8797 295.619 33.1184 298.217L34.8658 300.245H169.859H304.852L306.81 298.198C311.498 293.296 307.399 289.101 297.875 289.054L294.744 289.038L301.974 281.951C311.885 272.234 318.843 260.725 320.608 251.129C321.263 247.567 321.994 246.844 324.941 246.844C333.6 246.844 349.448 239.782 355.234 233.345C359.344 228.772 357.184 224.455 348.937 220.76C343.456 218.304 334.737 215.858 331.463 215.858C329.345 215.858 322.851 218.19 317.597 220.837L315.29 221.999L313.719 220.082C311.639 217.542 311.735 216.155 314.157 213.79L316.171 211.822L324.18 212.28C332.073 212.731 332.204 212.715 333.302 211.184C334.833 209.049 334.703 207.553 332.692 204.202C327.854 196.137 314.662 191.035 303.144 192.775C297.357 193.649 294.05 195.281 290.992 198.771C287.805 202.407 286.495 206.425 286.495 212.56C286.495 218.503 287.704 222.916 290.521 227.254C291.648 228.988 292.57 230.811 292.57 231.303C292.57 232.745 286.598 238.818 283.356 240.675C281.715 241.614 278.491 242.954 276.191 243.653C270.955 245.245 266.966 244.517 263.101 241.263C255.112 234.537 252.659 223.93 255.154 206.908C257.533 190.689 257.516 171.264 255.112 157.635C252.878 144.963 246.414 129.642 238.093 117.297C225.679 98.8794 206.315 81.9163 187.724 73.1743C165.473 62.7116 153.065 59.9189 129.236 60.0119C115.315 60.0653 107.833 60.89 99.9381 63.2397C94.7337 64.7883 93.9136 64.5734 90.0949 60.6652C88.1814 58.7072 84.8101 56.165 82.6024 55.0153C79.1299 53.2075 78.3173 52.4019 76.582 49.0436C74.9791 45.9417 73.7305 44.6007 70.372 42.373C68.0597 40.8389 59.4772 32.9256 51.3004 24.7869C29.2976 2.8891 25.3695 -0.191028 22.7319 2.38541ZM52.7043 35.3821C66.8644 49.4121 90.2589 73.562 92.4605 76.4219C94.5501 79.1361 95.2007 81.3664 93.9028 81.3664C91.9523 81.3664 51.048 38.033 40.2275 24.5041C39.72 23.8698 39.5877 23.3503 39.9332 23.3503C40.2788 23.3503 46.0258 28.7643 52.7043 35.3821ZM149.147 72.4471C163.482 74.9682 175.075 78.8843 185.773 84.8191C212.333 99.5525 231.616 121.754 240.242 147.529C244.793 161.129 246.055 174.997 244.33 192.454C242.532 210.661 242.244 224.609 243.563 229.703C246.147 239.685 252.556 248.054 260.51 251.834C264.295 253.631 265.09 253.758 272.659 253.762C280.567 253.767 280.878 253.711 285.837 251.398C291.817 248.608 298.088 243.208 302.01 237.471C306.072 231.527 306.089 231.016 302.381 225.714C297.535 218.787 296.055 212.121 298.232 207.031C300.966 200.64 309.662 198.292 316.867 202L319.23 203.216L317.205 203.67C310.59 205.152 309.641 205.587 306.647 208.512C301.281 213.753 300.779 220.14 305.292 225.747C307.6 228.617 313.589 231.681 316.887 231.681C318.283 231.681 322.903 230.287 327.476 228.486L335.587 225.291L339.769 226.77C344.891 228.582 345.229 228.887 343.526 230.159C338.772 233.708 332.388 235.404 321.485 236.013C312.453 236.517 312.093 236.8 310.138 244.932C307.345 256.552 304.534 262.058 297.171 270.32C291.142 277.084 285.249 281.622 276.822 285.989L272.21 288.378H232.506H192.801L188.437 283.599C176.778 270.833 173.952 262.037 176.071 245.118C176.613 240.791 176.546 240.315 175.22 239.019C173.107 236.955 170.016 237.178 167.739 239.559C165.026 242.396 163.655 247.981 163.674 256.118C163.694 264.489 164.351 267.477 167.576 273.874C168.948 276.594 170.187 279.089 170.33 279.418C170.812 280.526 156.799 279.288 152.184 277.814C142.816 274.824 133.131 267.654 128.871 260.554C125.035 254.161 123.837 249.798 123.837 242.229C123.837 234.886 125.046 230.285 128.588 224.155C131.123 219.766 131.189 217.077 128.808 215.247C126.038 213.118 123.014 213.449 120.59 216.146C117.887 219.153 114.001 227.021 112.59 232.34C110.814 239.04 111.116 249.153 113.289 255.744C117.534 268.62 128.246 280.279 141.427 286.37L145.772 288.377L107.351 288.378L68.9297 288.378L60.3155 282.749C40.7283 269.948 25.08 248.682 17.9156 225.124C6.54839 187.749 14.7475 147.529 40.0304 116.638C46.1865 109.116 57.4808 98.739 62.8742 95.6483C63.3298 95.3879 65.3039 96.5911 67.4995 98.468C72.3063 102.577 76.4592 104.012 82.5667 103.675C96.7099 102.894 108.755 88.0324 104.69 76.3784C104.087 74.6478 103.719 73.1084 103.874 72.9574C104.027 72.8071 107.747 72.2803 112.139 71.7878C122.182 70.6618 140.888 70.9947 149.147 72.4471ZM321.466 82.476C321.952 82.6665 322.535 82.6428 322.759 82.4239C322.983 82.205 322.585 82.0494 321.873 82.0778C321.087 82.1094 320.927 82.2657 321.466 82.476ZM95.9944 136.324C88.3414 139.123 82.4668 147.43 82.4081 155.535C82.2974 170.802 97.455 180.643 111.962 174.722C115.614 173.232 120.792 168.118 122.571 164.246C124.892 159.19 124.782 151.546 122.319 146.893C120.164 142.823 114.832 137.978 111.262 136.847C107.117 135.534 98.9209 135.254 95.9944 136.324ZM101.777 146.083C104.611 147.558 105.702 150.517 104.52 153.527C103.974 154.914 100.757 156.524 98.5295 156.524C94.7337 156.524 92.2033 151.487 94.1836 147.873C95.4423 145.575 99.1302 144.706 101.777 146.083Z" stroke="#0C0B0B" stroke-opacity="0.2" stroke-width="2" mask="url(#path-6-outside-1_13_26)"/>
<path fill-rule="evenodd" clip-rule="evenodd" d="M22.7319 2.38541C22.2865 2.82054 21.9233 4.08107 21.9254 5.18733C21.9294 7.94243 31.4034 27.3178 34.7606 31.4363C36.2522 33.2658 37.6607 35.533 37.8909 36.4738C38.5226 39.0523 40.1074 41.9392 41.9493 43.8643C43.1297 45.0978 43.7088 46.6293 43.9855 49.2479C44.4026 53.195 45.6789 55.6462 49.9992 60.7958C52.0098 63.1916 52.8838 64.9274 53.1943 67.138C53.7369 71.0046 55.0902 73.5534 58.9501 77.9771L62.0325 81.5102L59.6595 83.5809C58.3535 84.7202 53.39 88.7668 48.6297 92.5741C43.8688 96.3814 37.5595 102.167 34.6094 105.43C19.6826 121.941 8.01367 145.059 3.77442 166.517C2.01892 175.401 0.716978 193.28 1.26097 201.025C3.49162 232.779 19.8527 264.749 44.6875 285.882L48.2167 288.885L41.5119 289.148C35.5732 289.381 34.61 289.592 33.0887 290.988C30.8696 293.024 30.8797 295.619 33.1184 298.217L34.8658 300.245H169.859H304.852L306.81 298.198C311.498 293.296 307.399 289.101 297.875 289.054L294.744 289.038L301.974 281.951C311.885 272.234 318.843 260.725 320.608 251.129C321.263 247.567 321.994 246.844 324.941 246.844C333.6 246.844 349.448 239.782 355.234 233.345C359.344 228.772 357.184 224.455 348.937 220.76C343.456 218.304 334.737 215.858 331.463 215.858C329.345 215.858 322.851 218.19 317.597 220.837L315.29 221.999L313.719 220.082C311.639 217.542 311.735 216.155 314.157 213.79L316.171 211.822L324.18 212.28C332.073 212.731 332.204 212.715 333.302 211.184C334.833 209.049 334.703 207.553 332.692 204.202C327.854 196.137 314.662 191.035 303.144 192.775C297.357 193.649 294.05 195.281 290.992 198.771C287.805 202.407 286.495 206.425 286.495 212.56C286.495 218.503 287.704 222.916 290.521 227.254C291.648 228.988 292.57 230.811 292.57 231.303C292.57 232.745 286.598 238.818 283.356 240.675C281.715 241.614 278.491 242.954 276.191 243.653C270.955 245.245 266.966 244.517 263.101 241.263C255.112 234.537 252.659 223.93 255.154 206.908C257.533 190.689 257.516 171.264 255.112 157.635C252.878 144.963 246.414 129.642 238.093 117.297C225.679 98.8794 206.315 81.9163 187.724 73.1743C165.473 62.7116 153.065 59.9189 129.236 60.0119C115.315 60.0653 107.833 60.89 99.9381 63.2397C94.7337 64.7883 93.9136 64.5734 90.0949 60.6652C88.1814 58.7072 84.8101 56.165 82.6024 55.0153C79.1299 53.2075 78.3173 52.4019 76.582 49.0436C74.9791 45.9417 73.7305 44.6007 70.372 42.373C68.0597 40.8389 59.4772 32.9256 51.3004 24.7869C29.2976 2.8891 25.3695 -0.191028 22.7319 2.38541ZM52.7043 35.3821C66.8644 49.4121 90.2589 73.562 92.4605 76.4219C94.5501 79.1361 95.2007 81.3664 93.9028 81.3664C91.9523 81.3664 51.048 38.033 40.2275 24.5041C39.72 23.8698 39.5877 23.3503 39.9332 23.3503C40.2788 23.3503 46.0258 28.7643 52.7043 35.3821ZM149.147 72.4471C163.482 74.9682 175.075 78.8843 185.773 84.8191C212.333 99.5525 231.616 121.754 240.242 147.529C244.793 161.129 246.055 174.997 244.33 192.454C242.532 210.661 242.244 224.609 243.563 229.703C246.147 239.685 252.556 248.054 260.51 251.834C264.295 253.631 265.09 253.758 272.659 253.762C280.567 253.767 280.878 253.711 285.837 251.398C291.817 248.608 298.088 243.208 302.01 237.471C306.072 231.527 306.089 231.016 302.381 225.714C297.535 218.787 296.055 212.121 298.232 207.031C300.966 200.64 309.662 198.292 316.867 202L319.23 203.216L317.205 203.67C310.59 205.152 309.641 205.587 306.647 208.512C301.281 213.753 300.779 220.14 305.292 225.747C307.6 228.617 313.589 231.681 316.887 231.681C318.283 231.681 322.903 230.287 327.476 228.486L335.587 225.291L339.769 226.77C344.891 228.582 345.229 228.887 343.526 230.159C338.772 233.708 332.388 235.404 321.485 236.013C312.453 236.517 312.093 236.8 310.138 244.932C307.345 256.552 304.534 262.058 297.171 270.32C291.142 277.084 285.249 281.622 276.822 285.989L272.21 288.378H232.506H192.801L188.437 283.599C176.778 270.833 173.952 262.037 176.071 245.118C176.613 240.791 176.546 240.315 175.22 239.019C173.107 236.955 170.016 237.178 167.739 239.559C165.026 242.396 163.655 247.981 163.674 256.118C163.694 264.489 164.351 267.477 167.576 273.874C168.948 276.594 170.187 279.089 170.33 279.418C170.812 280.526 156.799 279.288 152.184 277.814C142.816 274.824 133.131 267.654 128.871 260.554C125.035 254.161 123.837 249.798 123.837 242.229C123.837 234.886 125.046 230.285 128.588 224.155C131.123 219.766 131.189 217.077 128.808 215.247C126.038 213.118 123.014 213.449 120.59 216.146C117.887 219.153 114.001 227.021 112.59 232.34C110.814 239.04 111.116 249.153 113.289 255.744C117.534 268.62 128.246 280.279 141.427 286.37L145.772 288.377L107.351 288.378L68.9297 288.378L60.3155 282.749C40.7283 269.948 25.08 248.682 17.9156 225.124C6.54839 187.749 14.7475 147.529 40.0304 116.638C46.1865 109.116 57.4808 98.739 62.8742 95.6483C63.3298 95.3879 65.3039 96.5911 67.4995 98.468C72.3063 102.577 76.4592 104.012 82.5667 103.675C96.7099 102.894 108.755 88.0324 104.69 76.3784C104.087 74.6478 103.719 73.1084 103.874 72.9574C104.027 72.8071 107.747 72.2803 112.139 71.7878C122.182 70.6618 140.888 70.9947 149.147 72.4471ZM321.466 82.476C321.952 82.6665 322.535 82.6428 322.759 82.4239C322.983 82.205 322.585 82.0494 321.873 82.0778C321.087 82.1094 320.927 82.2657 321.466 82.476ZM95.9944 136.324C88.3414 139.123 82.4668 147.43 82.4081 155.535C82.2974 170.802 97.455 180.643 111.962 174.722C115.614 173.232 120.792 168.118 122.571 164.246C124.892 159.19 124.782 151.546 122.319 146.893C120.164 142.823 114.832 137.978 111.262 136.847C107.117 135.534 98.9209 135.254 95.9944 136.324ZM101.777 146.083C104.611 147.558 105.702 150.517 104.52 153.527C103.974 154.914 100.757 156.524 98.5295 156.524C94.7337 156.524 92.2033 151.487 94.1836 147.873C95.4423 145.575 99.1302 144.706 101.777 146.083Z" stroke="#101010" stroke-opacity="0.3" stroke-width="2" mask="url(#path-6-outside-1_13_26)"/>
<defs>
<linearGradient id="paint0_linear_13_26" x1="54.5" y1="338.5" x2="277" y2="-50" gradientUnits="userSpaceOnUse">
<stop offset="0.432292" stop-color="#F78158"/>
<stop offset="1" stop-color="#FDC2AD" stop-opacity="0.04"/>
</linearGradient>
</defs>
</svg>
